<svg xmlns="http://www.w3.org/2000/svg" viewBox="0 0 48 48"><g transform="matrix(2,0,0,2,0,0)"><defs><style>.c{fill:none;stroke:#191919;stroke-linecap:round;stroke-linejoin:round}</style></defs><rect x=".5" y=".5" width="21" height="14" rx="1.5" style="fill:#e3e3e3"></rect><path d="M2 .5A1.5 1.5 0 0 0 .5 2v11A1.5 1.5 0 0 0 2 14.5h1.336l14-14z" style="fill:#ffffff"></path><path class="c" d="M11.5 14.5H2A1.5 1.5 0 0 1 .5 13V2A1.5 1.5 0 0 1 2 .5h18A1.5 1.5 0 0 1 21.5 2v8.5"></path><path class="c" d="M21.067.946 11 9 .933.946"></path><path d="M18.338 12.5a.949.949 0 0 0-1.676 0l-5.052 9.635a.921.921 0 0 0 .032.914.944.944 0 0 0 .806.448h10.108a.946.946 0 0 0 .807-.448.923.923 0 0 0 .031-.914z" style="fill:#ffef5e"></path><path d="M17.5 12a.949.949 0 0 0-.838.5l-5.052 9.635a.921.921 0 0 0 .032.914.944.944 0 0 0 .806.448H17.5z" style="fill:#fff9bf"></path><path class="c" d="M18.338 12.5a.949.949 0 0 0-1.676 0l-5.052 9.635a.921.921 0 0 0 .032.914.944.944 0 0 0 .806.448h10.108a.946.946 0 0 0 .807-.448.923.923 0 0 0 .031-.914z"></path><path class="c" d="M17.5 20.49a.25.25 0 1 1-.25.25.25.25 0 0 1 .25-.25m0-2v-3"></path></g></svg>