<svg xmlns="http://www.w3.org/2000/svg" viewBox="0 0 48 48"><g transform="matrix(2,0,0,2,0,0)"><defs><style>.a{fill:#e3e3e3}.c{fill:none;stroke:#191919;stroke-linecap:round;stroke-linejoin:round}</style></defs><circle class="a" cx="7.5" cy="4.75" r="4.25"></circle><path class="a" d="M.5 17.5a7 7 0 0 1 14 0z"></path><path d="M7.5 3a4.238 4.238 0 0 1 4.042 3 4.2 4.2 0 0 0 .208-1.25 4.25 4.25 0 0 0-8.5 0A4.2 4.2 0 0 0 3.458 6 4.238 4.238 0 0 1 7.5 3zm0 10a7 7 0 0 1 6.532 4.5h.468a7 7 0 0 0-14 0h.468A7 7 0 0 1 7.5 13z" style="fill:#ffffff"></path><circle class="c" cx="7.5" cy="4.75" r="4.25"></circle><path class="c" d="M8.5 17.5h-8a7 7 0 0 1 10.783-5.89"></path><path d="M17.5 23.5a6 6 0 1 0-6-6 6 6 0 0 0 6 6z" style="fill:#ff808c"></path><path d="M17.5 11.5a6 6 0 0 0-3.943 10.516l8.458-8.458A5.977 5.977 0 0 0 17.5 11.5z" style="fill:#ffbfc5"></path><path class="c" d="M17.5 23.5a6 6 0 1 0-6-6 6 6 0 0 0 6 6zm2.121-8.132-4.242 4.242m4.242 0-4.242-4.242"></path></g></svg>