<svg xmlns="http://www.w3.org/2000/svg" viewBox="0 0 48 48"><g transform="matrix(2,0,0,2,0,0)"><defs><style>.b{stroke:#191919;stroke-linecap:round;stroke-linejoin:round;fill:none}</style></defs><path d="M17.5 5.5V3a.5.5 0 0 0-.5-.5H9.5v19H17a.5.5 0 0 0 .5-.5v-2.5" style="stroke:#191919;stroke-linecap:round;stroke-linejoin:round;fill:#e3e3e3"></path><path class="b" d="M23.5 12h-12m8 4 4-4-4-4"></path><path d="M.5 21.222a.5.5 0 0 0 .392.488l8 1.778A.5.5 0 0 0 9.5 23V1a.5.5 0 0 0-.608-.488l-8 1.778a.5.5 0 0 0-.392.488z" style="fill:#c77f67"></path><path d="m4.5 1.488-3.608.8a.5.5 0 0 0-.392.49v18.444a.5.5 0 0 0 .392.488l3.608.8z" style="fill:#e3bfb3"></path><path class="b" d="M.5 21.222a.5.5 0 0 0 .392.488l8 1.778A.5.5 0 0 0 9.5 23V1a.5.5 0 0 0-.608-.488l-8 1.778a.5.5 0 0 0-.392.488z"></path><circle cx="6" cy="12" r="1.5" style="fill:gray;stroke:#191919;stroke-linecap:round;stroke-linejoin:round"></circle></g></svg>