<svg xmlns="http://www.w3.org/2000/svg" viewBox="0 0 48 48"><g transform="matrix(2,0,0,2,0,0)"><defs><style>.c{fill:none;stroke:#191919;stroke-linecap:round;stroke-linejoin:round}</style></defs><path d="M21.857 12S17.571 18 12 18s-9.857-6-9.857-6S6.429 6 12 6s9.857 6 9.857 6z" style="fill:#e3e3e3"></path><path d="m7.338 16.662 9.323-9.324A9.522 9.522 0 0 0 12 6c-5.571 0-9.857 6-9.857 6a18.208 18.208 0 0 0 5.195 4.662z" style="fill:#ffffff"></path><path class="c" d="M21.857 12S17.571 18 12 18s-9.857-6-9.857-6S6.429 6 12 6s9.857 6 9.857 6zM.5 3.5v-2a1 1 0 0 1 1-1h2m20 3v-2a1 1 0 0 0-1-1h-2m-20 20v2a1 1 0 0 0 1 1h2m20-3v2a1 1 0 0 1-1 1h-2"></path><circle cx="12" cy="12" r="3.5" style="fill:#66e1ff"></circle><path d="M9.525 14.475a3.5 3.5 0 0 1 4.95-4.95z" style="fill:#c2f3ff"></path><circle class="c" cx="12" cy="12" r="3.5"></circle><path class="c" d="M12 11.75a.25.25 0 1 1-.25.25.25.25 0 0 1 .25-.25"></path></g></svg>