<svg xmlns="http://www.w3.org/2000/svg" viewBox="0 0 48 48"><g transform="matrix(2,0,0,2,0,0)"><path d="m22.252 10.234-1.265-.45a1.874 1.874 0 0 1-1.065-2.571L20.5 6A1.875 1.875 0 0 0 18 3.5l-1.213.576a1.874 1.874 0 0 1-2.571-1.065l-.45-1.265a1.875 1.875 0 0 0-3.533 0l-.45 1.265a1.875 1.875 0 0 1-2.572 1.067L6 3.5A1.874 1.874 0 0 0 3.5 6l.576 1.213a1.874 1.874 0 0 1-1.065 2.571l-1.265.45a1.875 1.875 0 0 0 0 3.534l1.265.45a1.874 1.874 0 0 1 1.065 2.571L3.5 18A1.874 1.874 0 0 0 6 20.5l1.213-.576a1.875 1.875 0 0 1 2.572 1.065l.45 1.265a1.875 1.875 0 0 0 3.533 0l.45-1.265a1.874 1.874 0 0 1 2.571-1.065L18 20.5a1.875 1.875 0 0 0 2.5-2.5l-.577-1.213a1.874 1.874 0 0 1 1.065-2.571l1.265-.45a1.875 1.875 0 0 0 0-3.534zM12 16.5a4.5 4.5 0 1 1 4.5-4.5 4.5 4.5 0 0 1-4.5 4.5z" style="fill:#e3e3e3"></path><path d="M3.011 14.218a1.874 1.874 0 0 1 1.065 2.571L3.5 18a1.876 1.876 0 0 0 .367 2.131l4.95-4.95a4.5 4.5 0 0 1 6.364-6.364l4.95-4.95A1.874 1.874 0 0 0 18 3.5l-1.213.576a1.874 1.874 0 0 1-2.571-1.065l-.45-1.265a1.875 1.875 0 0 0-3.533 0l-.45 1.265a1.875 1.875 0 0 1-2.572 1.067L6 3.5A1.874 1.874 0 0 0 3.5 6l.576 1.213a1.874 1.874 0 0 1-1.065 2.571l-1.265.45a1.875 1.875 0 0 0 0 3.534z" style="fill:#ffffff"></path><path d="m22.252 10.234-1.265-.45a1.874 1.874 0 0 1-1.065-2.571L20.5 6A1.875 1.875 0 0 0 18 3.5l-1.213.576a1.874 1.874 0 0 1-2.571-1.065l-.45-1.265a1.875 1.875 0 0 0-3.533 0l-.45 1.265a1.875 1.875 0 0 1-2.572 1.067L6 3.5A1.874 1.874 0 0 0 3.5 6l.576 1.213a1.874 1.874 0 0 1-1.065 2.571l-1.265.45a1.875 1.875 0 0 0 0 3.534l1.265.45a1.874 1.874 0 0 1 1.065 2.571L3.5 18A1.874 1.874 0 0 0 6 20.5l1.213-.576a1.875 1.875 0 0 1 2.572 1.065l.45 1.265a1.875 1.875 0 0 0 3.533 0l.45-1.265a1.874 1.874 0 0 1 2.571-1.065L18 20.5a1.875 1.875 0 0 0 2.5-2.5l-.577-1.213a1.874 1.874 0 0 1 1.065-2.571l1.265-.45a1.875 1.875 0 0 0 0-3.534zM12 16.5a4.5 4.5 0 1 1 4.5-4.5 4.5 4.5 0 0 1-4.5 4.5z" style="fill:none;stroke:#191919;stroke-linecap:round;stroke-linejoin:round"></path></g></svg>