<svg xmlns="http://www.w3.org/2000/svg" viewBox="0 0 48 48"><g transform="matrix(2,0,0,2,0,0)"><defs><style>.c{fill:#ffdda1}.d{fill:none;stroke:#191919;stroke-linecap:round;stroke-linejoin:round}</style></defs><rect x="9.5" y=".5" width="13" height="23" rx="2" style="fill:#ffffff"></rect><path d="M22.5 5.411V2.5a2 2 0 0 0-2-2h-9a2 2 0 0 0-2 2v15.911z" style="fill:#f8f8f8"></path><path class="c" d="M14.5 14.5a2.006 2.006 0 0 1-2 2h-3v5a2.006 2.006 0 0 0 2 2h-8v-2c-1.33-.72-2-1.44-2-2.95V13.5a6 6 0 0 1 6-6h2v5h3a2.006 2.006 0 0 1 2 2z"></path><path class="c" d="M7.5 10.414h2V7.5h-2a6 6 0 0 0-6 6v2.914a6 6 0 0 1 6-6z"></path><path class="d" d="M9.5 9.5v-7a2 2 0 0 1 2-2h9a2 2 0 0 1 2 2v19a2 2 0 0 1-2 2h-9a2 2 0 0 1-2-2v-1m0-8h-3m3 4a3.217 3.217 0 0 1-2 2.97"></path><path class="d" d="M9.5 7.5h-2a6 6 0 0 0-6 6v5.046c0 1.513.672 2.23 2 2.954v2m12.677-2.927a.25.25 0 1 1-.354 0 .252.252 0 0 1 .354 0M14.72 23.5H11.5m-2-11h3a2 2 0 0 1 0 4h-3"></path></g></svg>