<svg xmlns="http://www.w3.org/2000/svg" viewBox="0 0 48 48"><g transform="matrix(2,0,0,2,0,0)"><defs><style>.c{fill:none;stroke:#191919;stroke-linecap:round;stroke-linejoin:round}.d{fill:#ffdda1}</style></defs><circle cx="12" cy="12" r="11.5" style="fill:#eff7f6"></circle><path d="M12 4.444a11.494 11.494 0 0 1 11.319 9.529A11.5 11.5 0 1 0 .5 12a11.563 11.563 0 0 0 .181 1.973A11.494 11.494 0 0 1 12 4.444z" style="fill:#ffffff"></path><circle class="c" cx="12" cy="12" r="11.5"></circle><circle class="d" cx="12" cy="8.75" r="4.25"></circle><path d="M18.28 18.43a8.958 8.958 0 0 1-12.56 0 6.983 6.983 0 0 1 12.56 0z" style="fill:#e3e3e3"></path><path d="M12 16.718a6.958 6.958 0 0 1 5.338 2.507 8.741 8.741 0 0 0 .942-.8 6.983 6.983 0 0 0-12.56 0 8.741 8.741 0 0 0 .942.8A6.958 6.958 0 0 1 12 16.718z" style="fill:#ffffff"></path><path class="c" d="M18.317 18.5a6.988 6.988 0 0 0-12.634 0"></path><path class="d" d="M12 6.718a4.239 4.239 0 0 1 4.085 3.141 4.188 4.188 0 0 0 .165-1.109 4.25 4.25 0 0 0-8.5 0 4.188 4.188 0 0 0 .165 1.109A4.239 4.239 0 0 1 12 6.718z"></path><circle class="c" cx="12" cy="8.75" r="4.25"></circle></g></svg>