<svg xmlns="http://www.w3.org/2000/svg" viewBox="0 0 48 48"><g transform="matrix(2,0,0,2,0,0)"><defs><style>.c{fill:none;stroke:#191919;stroke-linecap:round;stroke-linejoin:round}</style></defs><rect x=".526" y=".533" width="21" height="14" rx="1.5" style="fill:#e3e3e3"></rect><path d="M2.026.533a1.5 1.5 0 0 0-1.5 1.5v11a1.5 1.5 0 0 0 1.5 1.5h1.336l14-14z" style="fill:#ffffff"></path><path class="c" d="M9.526 14.533h-7.5a1.5 1.5 0 0 1-1.5-1.5v-11a1.5 1.5 0 0 1 1.5-1.5h18a1.5 1.5 0 0 1 1.5 1.5v7.5"></path><path class="c" d="M21.093.979 11.026 9.033.958.979"></path><path d="M17.431 23.552a6 6 0 1 0-6-6 6 6 0 0 0 6 6z" style="fill:#58bd81"></path><path d="M17.431 11.552a6 6 0 0 0-3.943 10.516l8.458-8.458a5.978 5.978 0 0 0-4.515-2.058z" style="fill:#8aedb2"></path><path class="c" d="M17.431 23.552a6 6 0 1 0-6-6 6 6 0 0 0 6 6z"></path><path class="c" d="m20.105 15.812-2.9 3.874a.75.75 0 0 1-1.13.08l-1.5-1.5"></path></g></svg>