<svg xmlns="http://www.w3.org/2000/svg" viewBox="0 0 48 48"><g transform="matrix(2,0,0,2,0,0)"><defs><style>.g{fill:none;stroke:#191919;stroke-linecap:round;stroke-linejoin:round}</style></defs><path d="M.623 7.328C1.786 8.648 6.437 13.5 12 13.5s10.212-4.852 11.375-6.172a.5.5 0 0 0 0-.656C22.212 5.351 17.561.5 12 .5S1.786 5.351.623 6.671a.5.5 0 0 0 0 .656z" style="fill:#e3e3e3"></path><path d="M6.817 12.183 17.183 1.817A11.722 11.722 0 0 0 12 .5C6.437.5 1.786 5.351.623 6.671a.5.5 0 0 0 0 .656 21.619 21.619 0 0 0 6.194 4.856z" style="fill:#ffffff"></path><circle cx="12" cy="7" r="3.5" style="fill:#66e1ff"></circle><circle cx="12" cy="7" r="1.5" style="fill:#c2f3ff"></circle><rect x="14.5" y="15.501" width="9" height="7.999" rx="1" style="fill:#ffef5e"></rect><path d="M19 15.5h-3.5a1 1 0 0 0-1 1v6a1 1 0 0 0 1 1H19z" style="fill:#fff9bf"></path><rect class="g" x="14.5" y="15.501" width="9" height="7.999" rx="1"></rect><circle cx="19" cy="19.563" r="1.25" style="fill:#6b6b6b;stroke:#191919;stroke-linecap:round;stroke-linejoin:round"></circle><path class="g" d="M21.5 14a2.5 2.5 0 0 0-5 0v1.5h5z"></path><circle class="g" cx="12" cy="7" r="3.5"></circle><path class="g" d="M12 5.5A1.5 1.5 0 1 1 10.5 7"></path><path class="g" d="M20.744 9.851a23.008 23.008 0 0 0 2.632-2.523.5.5 0 0 0 0-.656C22.213 5.352 17.562.5 12 .5S1.787 5.352.624 6.672a.5.5 0 0 0 0 .656C1.787 8.648 6.438 13.5 12 13.5a10.348 10.348 0 0 0 2.578-.336"></path></g></svg>