<svg xmlns="http://www.w3.org/2000/svg" viewBox="0 0 48 48"><g transform="matrix(2,0,0,2,0,0)"><defs><style>.c{fill:none;stroke:#191919;stroke-linecap:round;stroke-linejoin:round}</style></defs><path d="M.626 23a.5.5 0 0 0 .5.5h21.748a.5.5 0 0 0 .5-.5v-9.5H1.126a.5.5 0 0 0-.5.5z" style="fill:#c77f67"></path><path d="M23.374 16.5v-3H1.126a.5.5 0 0 0-.5.5v2.5z" style="fill:#e3bfb3"></path><path class="c" d="M11.368 13.5h12.006"></path><path d="m8.377 23.5.5-6h2.5V14a5 5 0 0 0-10 0v3.5h2.5l.5 6z" style="fill:#e3e3e3"></path><path d="M6.377 9a5 5 0 0 0-5 5v2.753a5 5 0 0 1 10 0V14a5 5 0 0 0-5-5z" style="fill:#ffffff"></path><path class="c" d="m8.377 23.5.5-6h2.5V14a5 5 0 0 0-10 0v3.5h2.5l.5 6z"></path><circle cx="6.377" cy="4" r="3.5" style="fill:#e3e3e3;stroke:#191919;stroke-linecap:round;stroke-linejoin:round"></circle><circle cx="17.877" cy="6.75" r="2.25" style="fill:#ffdda1;stroke:#191919;stroke-linecap:round;stroke-linejoin:round"></circle><path d="M22.377 13.5a4.644 4.644 0 0 0-9 0z" style="fill:#58bd81;stroke:#191919;stroke-linecap:round;stroke-linejoin:round"></path></g></svg>