<svg xmlns="http://www.w3.org/2000/svg" viewBox="0 0 48 48"><g transform="matrix(2,0,0,2,0,0)"><defs><style>.a{fill:#e3e3e3}.b{fill:#ffffff}.c{fill:#ffdda1}.d{fill:none;stroke:#191919;stroke-linecap:round;stroke-linejoin:round}</style></defs><circle class="a" cx="16.5" cy="7.75" r="4.25"></circle><path class="b" d="M16.5 6.19a4.236 4.236 0 0 1 4.012 2.91 4.2 4.2 0 0 0 .238-1.35 4.25 4.25 0 0 0-8.5 0 4.2 4.2 0 0 0 .238 1.35A4.236 4.236 0 0 1 16.5 6.19z"></path><path class="a" d="M9.5 20.5a7 7 0 0 1 14 0z"></path><path class="b" d="M16.5 15.729a7 7 0 0 1 6.631 4.771h.369a7 7 0 0 0-14 0h.369a7 7 0 0 1 6.631-4.771z"></path><circle class="c" cx="7.5" cy="7.75" r="4.25"></circle><path class="c" d="M7.5 6.19a4.236 4.236 0 0 1 4.012 2.91 4.2 4.2 0 0 0 .238-1.35 4.25 4.25 0 0 0-8.5 0 4.2 4.2 0 0 0 .238 1.35A4.236 4.236 0 0 1 7.5 6.19z"></path><circle class="d" cx="7.5" cy="7.75" r="4.25"></circle><path d="M.5 20.5a7 7 0 0 1 14 0z" style="fill:#8aedb2"></path><path d="M7.5 15.729a7 7 0 0 1 6.631 4.771h.369a7 7 0 0 0-14 0h.369A7 7 0 0 1 7.5 15.729z" style="fill:#c7f8d9"></path><path class="d" d="M.5 20.5a7 7 0 0 1 14 0zM13.26 5a4.249 4.249 0 1 1 .74 6.189 4.381 4.381 0 0 1-.5-.429m1 3.03a7.005 7.005 0 0 1 9 6.71H17"></path></g></svg>