<svg xmlns="http://www.w3.org/2000/svg" viewBox="0 0 48 48"><g transform="matrix(2,0,0,2,0,0)"><defs><style>.e{fill:none;stroke:#191919;stroke-linecap:round;stroke-linejoin:round}</style></defs><circle cx="12" cy="11.985" r="11.5" style="fill:#66e1ff"></circle><path d="M3.5 14A11.5 11.5 0 0 1 19.827 3.56 11.5 11.5 0 1 0 7.173 22.425 11.469 11.469 0 0 1 3.5 14z" style="fill:#c2f3ff"></path><path d="M12.406 5.321a2.25 2.25 0 0 0 2.056 3.163h.432a3 3 0 0 1 2.5 1.336l2.218 3.329a3 3 0 0 0 2.5 1.335h1.121a11.515 11.515 0 0 0-2.967-10.5h-5.8a2.25 2.25 0 0 0-2.06 1.337zM8.758 17.632l1.363-1.532A3 3 0 0 0 10 11.984l-1.121-1.121a3 3 0 0 0-2.122-.879H.674A11.513 11.513 0 0 0 8 22.769v-3.144a3 3 0 0 1 .758-1.993z" style="fill:#58bd81"></path><path d="M3.5 14a11.477 11.477 0 0 1 .721-4.016H.674a11.513 11.513 0 0 0 6.5 12.441A11.466 11.466 0 0 1 3.5 14z" style="fill:#8aedb2"></path><path class="e" d="M14.51 23.241a11.5 11.5 0 1 1 8.979-11.722"></path><path class="e" d="m10.121 16.13-1.363 1.533A3 3 0 0 0 8 19.656V22.8M.673 10.016h6.084a3 3 0 0 1 2.122.878L10 12.016m10.261-8h-5.8a2.25 2.25 0 0 0 0 4.5h.432A3 3 0 0 1 16 8.728m3.188 8.263a1.438 1.438 0 1 1-1.438-1.449 1.429 1.429 0 0 1 1.438 1.449z"></path><path d="M22.167 17.635a.945.945 0 0 1 0-1.3l.99-1.07a1.287 1.287 0 0 0-1.22-2.128l-1.415.333a.95.95 0 0 1-1.127-.655l-.426-1.392a1.273 1.273 0 0 0-2.438 0l-.426 1.392a.95.95 0 0 1-1.127.655l-1.415-.333a1.287 1.287 0 0 0-1.22 2.128l.99 1.07a.945.945 0 0 1 0 1.3l-.99 1.07a1.287 1.287 0 0 0 1.22 2.128l1.415-.333a.95.95 0 0 1 1.127.655l.426 1.392a1.273 1.273 0 0 0 2.438 0l.426-1.392a.95.95 0 0 1 1.127-.655l1.415.333a1.287 1.287 0 0 0 1.22-2.128zm-4.417.783a1.438 1.438 0 1 1 1.438-1.427 1.429 1.429 0 0 1-1.438 1.427z" style="fill:#e3e3e3"></path><path d="M20.522 13.471a.95.95 0 0 1-1.127-.655l-.426-1.392a1.273 1.273 0 0 0-2.438 0l-.426 1.392a.95.95 0 0 1-1.127.655l-1.415-.333a1.287 1.287 0 0 0-1.22 2.128l.99 1.07a.945.945 0 0 1 0 1.3l-.99 1.07a1.287 1.287 0 0 0 1.22 2.128l.534-.126 2.678-2.677a1.408 1.408 0 0 1-.463-1.039 1.441 1.441 0 0 1 1.438-1.449 1.417 1.417 0 0 1 1.046.466l2.788-2.787z" style="fill:#ffffff"></path><path class="e" d="M22.167 17.635a.945.945 0 0 1 0-1.3l.99-1.07a1.287 1.287 0 0 0-1.22-2.128l-1.415.333a.95.95 0 0 1-1.127-.655l-.426-1.392a1.273 1.273 0 0 0-2.438 0l-.426 1.392a.95.95 0 0 1-1.127.655l-1.415-.333a1.287 1.287 0 0 0-1.22 2.128l.99 1.07a.945.945 0 0 1 0 1.3l-.99 1.07a1.287 1.287 0 0 0 1.22 2.128l1.415-.333a.95.95 0 0 1 1.127.655l.426 1.392a1.273 1.273 0 0 0 2.438 0l.426-1.392a.95.95 0 0 1 1.127-.655l1.415.333a1.287 1.287 0 0 0 1.22-2.128zm-4.417.783a1.438 1.438 0 1 1 1.438-1.427 1.429 1.429 0 0 1-1.438 1.427z"></path></g></svg>