<svg xmlns="http://www.w3.org/2000/svg" viewBox="0 0 48 48"><g transform="matrix(2,0,0,2,0,0)"><defs><style>.e{stroke:#191919;stroke-linecap:round;stroke-linejoin:round;fill:none}</style></defs><path d="M5.5 17.5h16a2 2 0 0 0 2-2v-13a2 2 0 0 0-2-2h-16z" style="fill:#58bd81"></path><path d="M21.5.5h-16v17h1.475L23.129 1.346A1.992 1.992 0 0 0 21.5.5z" style="fill:#8aedb2"></path><path style="stroke:#191919;stroke-linecap:round;stroke-linejoin:round;fill:#66e1ff" d="m8.5 17.5-.5 6H3l-.5-6h6z"></path><path d="M10.5 14v3.5H.5V14a5 5 0 0 1 10 0z" style="fill:#ffffff;stroke:#191919;stroke-linecap:round;stroke-linejoin:round"></path><path class="e" d="M2.5 17.5v-3m6 3v-3m-3 9v-4M5.5 9v5"></path><path d="M8.96 3.47A5.933 5.933 0 0 1 6.5 4a5.986 5.986 0 0 1-4.1-1.62 3.5 3.5 0 0 1 6.56 1.09z" style="fill:#c77f67;stroke:#191919;stroke-linecap:round;stroke-linejoin:round"></path><path d="M9 4a3.5 3.5 0 0 1-7 0 3.409 3.409 0 0 1 .4-1.62A5.986 5.986 0 0 0 6.5 4a5.933 5.933 0 0 0 2.46-.53A3.076 3.076 0 0 1 9 4z" style="fill:#ffdda1;stroke:#191919;stroke-linecap:round;stroke-linejoin:round"></path><path class="e" d="M13.5 17.5h8a2 2 0 0 0 2-2v-13a2 2 0 0 0-2-2H10"></path></g></svg>