<svg xmlns="http://www.w3.org/2000/svg" viewBox="0 0 48 48"><g transform="matrix(2,0,0,2,0,0)"><path d="M3.5 4.5h-2a1 1 0 0 0-1 1v17a1 1 0 0 0 1 1h17a1 1 0 0 0 1-1v-2" style="stroke:#191919;stroke-linecap:round;stroke-linejoin:round;fill:#58bd81"></path><path d="M23.5 1.5a1 1 0 0 0-1-1h-18a1 1 0 0 0-1 1v18a1 1 0 0 0 1 1h18a1 1 0 0 0 1-1z" style="fill:#c7f8d9"></path><path d="M3.8 20.2 23.208.792A1 1 0 0 0 22.5.5h-18a1 1 0 0 0-1 1v18a1 1 0 0 0 .3.7z" style="fill:#ffffff"></path><path d="M23.5 1.5a1 1 0 0 0-1-1h-18a1 1 0 0 0-1 1v18a1 1 0 0 0 1 1h18a1 1 0 0 0 1-1zM7.496 4.497h12m-12 4h12m-12 4h12m-12 4H13" style="stroke:#191919;stroke-linecap:round;stroke-linejoin:round;fill:none"></path></g></svg>