<svg xmlns="http://www.w3.org/2000/svg" viewBox="0 0 48 48"><g transform="matrix(2,0,0,2,0,0)"><defs><style>.f{fill:none;stroke:#191919;stroke-linecap:round;stroke-linejoin:round}</style></defs><path d="M20.5 7.508V3.5a1 1 0 0 0-1-1h-18a1 1 0 0 0-1 1v4.008z" style="fill:#ff808c"></path><path d="M20.5 4.5v-1a1 1 0 0 0-1-1h-18a1 1 0 0 0-1 1v1z" style="fill:#ffbfc5"></path><path d="M.5 7.508V17.5a1 1 0 0 0 1 1h18a1 1 0 0 0 1-1v-10z" style="fill:#ffffff"></path><path d="M17.5 23.5a6 6 0 1 0-6-6 6 6 0 0 0 6 6z" style="fill:#ffef5e"></path><path d="M21.743 13.257a6 6 0 0 0-8.486 8.486z" style="fill:#fff9bf"></path><circle class="f" cx="17.5" cy="17.501" r="6"></circle><path class="f" d="M17.5 20.5V17a.5.5 0 0 0-.5-.5h-1m.75-2.5a.25.25 0 1 1-.25.25.25.25 0 0 1 .25-.25M16 20.501h3M9.5 18.5h-8a1 1 0 0 1-1-1v-14a1 1 0 0 1 1-1h18a1 1 0 0 1 1 1V10M5.5.501v5m10-5v5m-15 2h20"></path></g></svg>