<svg xmlns="http://www.w3.org/2000/svg" viewBox="0 0 48 48"><g transform="matrix(2,0,0,2,0,0)"><defs><style>.e{fill:none;stroke:#191919;stroke-linecap:round;stroke-linejoin:round}</style></defs><path d="M.5 13.5a1 1 0 0 0 1 1h3v4l4-4h12a1 1 0 0 0 1-1v-12a1 1 0 0 0-1-1h-19a1 1 0 0 0-1 1z" style="fill:#e3e3e3"></path><path d="M1.5 14.5h3l14-14h-17a1 1 0 0 0-1 1v12a1 1 0 0 0 1 1z" style="fill:#fff"></path><path d="M18.338 12.5a.95.95 0 0 0-1.676 0l-5.056 9.635a.923.923 0 0 0 .031.914.948.948 0 0 0 .807.448h10.112a.948.948 0 0 0 .807-.448.923.923 0 0 0 .031-.914z" style="fill:#ffef5e"></path><path d="M17.5 12a.945.945 0 0 0-.838.5l-5.056 9.635a.923.923 0 0 0 .031.914.948.948 0 0 0 .807.448H17.5z" style="fill:#fff9bf"></path><path class="e" d="M17.5 20.5a.25.25 0 1 1-.25.25.25.25 0 0 1 .25-.25m0-2v-3"></path><path class="e" d="M18.338 12.5a.95.95 0 0 0-1.676 0l-5.056 9.635a.923.923 0 0 0 .031.914.948.948 0 0 0 .807.448h10.112a.948.948 0 0 0 .807-.448.923.923 0 0 0 .031-.914z"></path><path class="e" d="M11 14.5H8.5l-4 4v-4h-3a1 1 0 0 1-1-1v-12a1 1 0 0 1 1-1h19a1 1 0 0 1 1 1V11"></path></g></svg>