<svg xmlns="http://www.w3.org/2000/svg" viewBox="0 0 48 48"><g transform="matrix(2,0,0,2,0,0)"><defs><style>.a{fill:#b2b2b2}.b{fill:#e3e3e3}.c{fill:#ffffff}.d{fill:none;stroke:#191919;stroke-linecap:round;stroke-linejoin:round}</style></defs><path class="a" d="M20.16 11.19a6.9 6.9 0 0 0-1.65-.19 7.423 7.423 0 0 0-4.16 1.26 8.233 8.233 0 0 0-1.2-2.05A6.077 6.077 0 0 1 16 9.5a5.916 5.916 0 0 1 4.16 1.69z"></path><path class="b" d="M16 10.805a6.015 6.015 0 0 1 1.729.253A7.434 7.434 0 0 1 18.51 11a6.9 6.9 0 0 1 1.65.19A5.916 5.916 0 0 0 16 9.5a6.077 6.077 0 0 0-2.85.71 8.6 8.6 0 0 1 .681 1A6.055 6.055 0 0 1 16 10.805zM.5 15.5a6 6 0 0 1 12 0z"></path><path class="c" d="M6.5 11.271a6 6 0 0 1 5.734 4.229h.266a6 6 0 0 0-12 0h.266A6 6 0 0 1 6.5 11.271z"></path><circle class="b" cx="6.5" cy="4.25" r="3.75"></circle><path class="c" d="M6.5 2.488a3.74 3.74 0 0 1 3.6 2.756 3.71 3.71 0 0 0 .15-.994 3.75 3.75 0 0 0-7.5 0 3.71 3.71 0 0 0 .15.994 3.74 3.74 0 0 1 3.6-2.756z"></path><circle class="a" cx="16" cy="4.25" r="3.75"></circle><path class="b" d="M16 2.333a3.742 3.742 0 0 1 3.624 2.834 3.75 3.75 0 0 0 .126-.917 3.75 3.75 0 0 0-7.5 0 3.75 3.75 0 0 0 .126.917A3.742 3.742 0 0 1 16 2.333z"></path><path class="d" d="M.5 15.5a6 6 0 0 1 12 0z"></path><circle class="d" cx="6.5" cy="4.25" r="3.75"></circle><circle class="d" cx="16" cy="4.25" r="3.75"></circle><path class="d" d="M19.47 10.605a6 6 0 0 0-6.458-.309"></path><circle cx="18.515" cy="18.5" r="5" style="fill:#ffef5e"></circle><path d="M14.979 22.036a5 5 0 1 1 7.071-7.072z" style="fill:#fff9bf"></path><circle class="d" cx="18.515" cy="18.5" r="5"></circle><path class="d" d="M18.515 20.75a.25.25 0 1 1-.25.25.25.25 0 0 1 .25-.25m-1.5-3.25a1.5 1.5 0 1 1 1.5 1.5"></path></g></svg>