<svg xmlns="http://www.w3.org/2000/svg" viewBox="0 0 48 48"><g transform="matrix(2,0,0,2,0,0)"><defs><style>.a{fill:none;stroke:#191919;stroke-linecap:round;stroke-linejoin:round}</style></defs><path class="a" d="M.5 11.72V.75"></path><path d="M23.5 1.75v7.99l-6.65 2.74a12.045 12.045 0 0 1-3.85.77h-2.5a8.886 8.886 0 0 0-3.74.98L.5 17.75v-6.03l7.25-4a5.235 5.235 0 0 1 3.65-.34l3.71 1.24a3.272 3.272 0 0 0 3.21-.88z" style="fill:#ffef5e"></path><path d="M23.5 9.74v6.01l-6.54 1.54a15.39 15.39 0 0 1-3.95.3l-2.51-.19a6.591 6.591 0 0 0-3.64.99L.5 22.78v-5.03l6.26-3.52a8.886 8.886 0 0 1 3.74-.98H13a12.045 12.045 0 0 0 3.85-.77z" style="fill:#ff808c"></path><path d="M23.5 15.75v7a.5.5 0 0 1-.5.5H1a.51.51 0 0 1-.5-.47l6.36-4.39a6.591 6.591 0 0 1 3.64-.99l2.51.19a15.39 15.39 0 0 0 3.95-.3z" style="fill:#8aedb2"></path><path d="M18.32 7.74a3.272 3.272 0 0 1-3.21.88L11.4 7.38a5.235 5.235 0 0 0-3.65.34l-7.25 4v2l7.25-4a5.235 5.235 0 0 1 3.65-.34l3.71 1.239a3.267 3.267 0 0 0 3.21-.88L23.5 3.75v-2z" style="fill:#fff9bf"></path><path d="M16.85 12.48a12.045 12.045 0 0 1-3.85.77h-2.5a8.886 8.886 0 0 0-3.74.98L.5 17.75v2l6.26-3.521a8.9 8.9 0 0 1 3.74-.979H13a12.073 12.073 0 0 0 3.85-.771l6.65-2.74v-2z" style="fill:#ffbfc5"></path><path d="M16.96 17.29a15.39 15.39 0 0 1-3.95.3l-2.51-.19a6.591 6.591 0 0 0-3.64.99L.5 22.78a.51.51 0 0 0 .5.47h1.716l4.144-2.86a6.592 6.592 0 0 1 3.64-.99l2.51.191a15.391 15.391 0 0 0 3.95-.3l6.54-1.541v-2z" style="fill:#c7f8d9"></path><path class="a" d="M23.5 1.75v7.99l-6.65 2.74a12.045 12.045 0 0 1-3.85.77h-2.5a8.886 8.886 0 0 0-3.74.98L.5 17.75v-6.03l7.25-4a5.235 5.235 0 0 1 3.65-.34l3.71 1.24a3.272 3.272 0 0 0 3.21-.88z"></path><path class="a" d="M23.5 9.74v6.01l-6.54 1.54a15.39 15.39 0 0 1-3.95.3l-2.51-.19a6.591 6.591 0 0 0-3.64.99L.5 22.78v-5.03l6.26-3.52a8.886 8.886 0 0 1 3.74-.98H13a12.045 12.045 0 0 0 3.85-.77z"></path><path class="a" d="M23.5 15.75v7a.5.5 0 0 1-.5.5H1a.51.51 0 0 1-.5-.47l6.36-4.39a6.591 6.591 0 0 1 3.64-.99l2.51.19a15.39 15.39 0 0 0 3.95-.3z"></path></g></svg>