<svg xmlns="http://www.w3.org/2000/svg" viewBox="0 0 48 48"><g transform="matrix(2,0,0,2,0,0)"><defs><style>.a{fill:#e3e3e3}.c{fill:none;stroke:#191919;stroke-linecap:round;stroke-linejoin:round}</style></defs><circle class="a" cx="12" cy="7.75" r="4.25"></circle><path class="a" d="M5 20.5a7 7 0 0 1 14 0z"></path><path d="M12 6a4.238 4.238 0 0 1 4.042 3 4.2 4.2 0 0 0 .208-1.25 4.25 4.25 0 0 0-8.5 0A4.2 4.2 0 0 0 7.958 9 4.238 4.238 0 0 1 12 6zm0 10a7 7 0 0 1 6.532 4.5H19a7 7 0 0 0-14 0h.468A7 7 0 0 1 12 16z" style="fill:#ffffff"></path><circle class="c" cx="12" cy="7.75" r="4.25"></circle><path class="c" d="M5 20.5a7 7 0 0 1 14 0z"></path></g></svg>