<svg xmlns="http://www.w3.org/2000/svg" viewBox="0 0 48 48"><g transform="matrix(2,0,0,2,0,0)"><defs><style>.c{fill:none;stroke:#191919;stroke-linecap:round;stroke-linejoin:round}</style></defs><path d="M19.207 4.5a1 1 0 0 1 .293.707V22.5a1 1 0 0 1-1 1h-17a1 1 0 0 1-1-1v-21a1 1 0 0 1 1-1h13.293a1 1 0 0 1 .707.293z" style="fill:#e3e3e3"></path><path d="M18.159 3.452 15.5.793A1 1 0 0 0 14.793.5H1.5a1 1 0 0 0-1 1v19.61z" style="fill:#ffffff"></path><path class="c" d="M10.5 23.5h-9a1 1 0 0 1-1-1v-21a1 1 0 0 1 1-1h13.293a1 1 0 0 1 .707.293L19.207 4.5a1 1 0 0 1 .293.707V8.5"></path><path d="M17.5 23.5a6 6 0 1 0-6-6 6 6 0 0 0 6 6z" style="fill:#58bd81"></path><path d="M17.5 11.5a6 6 0 0 0-3.943 10.516l8.458-8.458A5.977 5.977 0 0 0 17.5 11.5z" style="fill:#8aedb2"></path><path class="c" d="M17.5 23.5a6 6 0 1 0-6-6 6 6 0 0 0 6 6z"></path><path class="c" d="m20.174 15.76-2.9 3.874a.75.75 0 0 1-1.13.08l-1.5-1.5"></path></g></svg>