<svg xmlns="http://www.w3.org/2000/svg" viewBox="0 0 48 48"><g transform="matrix(2,0,0,2,0,0)"><defs><style>.c{fill:none;stroke:#191919;stroke-linecap:round;stroke-linejoin:round}</style></defs><rect x=".5" y=".5" width="21" height="14" rx="1.5" style="fill:#e3e3e3"></rect><path d="M2 .5A1.5 1.5 0 0 0 .5 2v11A1.5 1.5 0 0 0 2 14.5h1.336l14-14z" style="fill:#ffffff"></path><path class="c" d="M9.5 14.5H2A1.5 1.5 0 0 1 .5 13V2A1.5 1.5 0 0 1 2 .5h18A1.5 1.5 0 0 1 21.5 2v7.5"></path><path class="c" d="M21.067.946 11 9 .933.946"></path><path d="M17.5 23.5a6 6 0 1 0-6-6 6 6 0 0 0 6 6z" style="fill:#ffef5e"></path><path d="M17.5 11.5a5.995 5.995 0 0 0-3.943 10.515l8.458-8.458A5.979 5.979 0 0 0 17.5 11.5z" style="fill:#fff9bf"></path><path class="c" d="M17.5 23.5a6 6 0 1 0-6-6 6 6 0 0 0 6 6zm0-9v6m3-3h-6"></path></g></svg>