<svg xmlns="http://www.w3.org/2000/svg" viewBox="0 0 48 48"><g transform="matrix(2,0,0,2,0,0)"><defs><style>.c{fill:none;stroke:#191919;stroke-linecap:round;stroke-linejoin:round}</style></defs><path d="M5.5 15.5h-4a1 1 0 0 1-1-1v-13a1 1 0 0 1 1-1h21a1 1 0 0 1 1 1v13a1 1 0 0 1-1 1h-4" style="fill:#e3e3e3"></path><path d="M1.5.5a1 1 0 0 0-1 1v13a.985.985 0 0 0 .248.641L15.392.5z" style="fill:#ffffff"></path><path class="c" d="M5.5 15.5h-4a1 1 0 0 1-1-1v-13a1 1 0 0 1 1-1h21a1 1 0 0 1 1 1v13a1 1 0 0 1-1 1h-4"></path><path d="M12 12.5a2.75 2.75 0 1 0-2.75-2.75A2.75 2.75 0 0 0 12 12.5z" style="fill:#ffdda1;stroke:#191919;stroke-linecap:round;stroke-linejoin:round"></path><path d="M15.367 16.043a3.5 3.5 0 0 0-6.722-.033" style="fill:#8aedb2;stroke:#191919;stroke-linecap:round;stroke-linejoin:round"></path><path class="c" d="M6.5 18.021h11"></path><path d="m9 23.5-1.5-5.479h9L15 23.5" style="fill:#c77f67;stroke:#191919;stroke-linecap:round;stroke-linejoin:round"></path><path class="c" d="M12 20.271a.25.25 0 1 0 .25.25.25.25 0 0 0-.25-.25h0"></path></g></svg>