<svg xmlns="http://www.w3.org/2000/svg" viewBox="0 0 48 48"><g transform="matrix(2,0,0,2,0,0)"><path d="M23.021 2.978 20.5 5.5h-2v-2L21.021.978a4.5 4.5 0 0 0-6.328 5.328l-8.386 8.387a4.5 4.5 0 0 0-5.328 6.328L3.5 18.5h2v2l-2.521 2.521a4.5 4.5 0 0 0 6.328-5.328l8.386-8.387a4.5 4.5 0 0 0 5.328-6.328z" style="fill:#e3e3e3"></path><path d="M18.5 5.5v-2L21.021.978a4.5 4.5 0 0 0-6.328 5.328l-8.386 8.387a4.5 4.5 0 0 0-5.328 6.328L3.5 18.5h2z" style="fill:#ffffff"></path><path d="M23.021 2.978 20.5 5.5h-2v-2L21.021.978a4.5 4.5 0 0 0-6.328 5.328l-8.386 8.387a4.5 4.5 0 0 0-5.328 6.328L3.5 18.5h2v2l-2.521 2.521a4.5 4.5 0 0 0 6.328-5.328l8.386-8.387a4.5 4.5 0 0 0 5.328-6.328z" style="fill:none;stroke:#191919;stroke-linecap:round;stroke-linejoin:round"></path></g></svg>