<svg xmlns="http://www.w3.org/2000/svg" viewBox="0 0 48 48"><g transform="matrix(2,0,0,2,0,0)"><defs><style>.c{fill:none;stroke:#191919;stroke-linecap:round;stroke-linejoin:round}</style></defs><rect x=".5" y=".5" width="21" height="14" rx="1.5" style="fill:#e3e3e3"></rect><path d="M2 .5A1.5 1.5 0 0 0 .5 2v11A1.5 1.5 0 0 0 2 14.5h1.336l14-14z" style="fill:#ffffff"></path><path class="c" d="M9.5 14.5H2A1.5 1.5 0 0 1 .5 13V2A1.5 1.5 0 0 1 2 .5h18A1.5 1.5 0 0 1 21.5 2v7.5"></path><path class="c" d="M21.067.946 11 9 .933.946"></path><path d="M17.541 22a4.5 4.5 0 1 0-4.5-4.5 4.5 4.5 0 0 0 4.5 4.5z" style="fill:#c2f3ff"></path><path class="c" d="M15.051 18.5h-3.5V22"></path><path class="c" d="M22.968 19.732A5.571 5.571 0 0 1 12.155 18.5m7.896-2h3.5V13"></path><path class="c" d="M12.134 15.266A5.572 5.572 0 0 1 22.948 16.5"></path></g></svg>