<svg xmlns="http://www.w3.org/2000/svg" viewBox="0 0 48 48"><g transform="matrix(2,0,0,2,0,0)"><defs><style>.c{fill:none;stroke:#191919;stroke-linecap:round;stroke-linejoin:round}.e{fill:#ff808c}.g{fill:#ffbfc5}</style></defs><rect x=".5" y=".501" width="23" height="23" rx="1" style="fill:#e3e3e3"></rect><path d="M23.5 4V1.5a1 1 0 0 0-1-1h-21a1 1 0 0 0-1 1V4z" style="fill:#ffffff"></path><rect class="c" x=".5" y=".5" width="23" height="23" rx="1"></rect><path class="c" d="M12 14.5v-7m6.531 7v-2M5.5 8.5v-5m0 11v-4m13.031 0v-7M12 5.5v-2"></path><path d="M16.531 11.5a1 1 0 0 1 1-1h2a1 1 0 0 1 0 2h-2a1 1 0 0 1-1-1zM10 6.5a1 1 0 0 1 1-1h2a1 1 0 0 1 0 2h-2a1 1 0 0 1-1-1zm-6.5 3a1 1 0 0 1 1-1h2a1 1 0 0 1 0 2h-2a1 1 0 0 1-1-1z" style="fill:#fff9bf;stroke:#191919;stroke-linecap:round;stroke-linejoin:round"></path><circle class="e" cx="18.542" cy="19" r="1.5"></circle><circle cx="12" cy="19" r="1.5" style="fill:#78eb7b"></circle><circle class="e" cx="5.5" cy="19" r="1.5"></circle><path class="g" d="M18.542 20.5a1.5 1.5 0 0 1 0-3z"></path><circle class="c" cx="18.542" cy="19" r="1.5"></circle><path d="M12 20.5a1.5 1.5 0 0 1 0-3z" style="fill:#c9f7ca"></path><circle class="c" cx="12" cy="19" r="1.5"></circle><path class="g" d="M5.5 20.5a1.5 1.5 0 0 1 0-3z"></path><circle class="c" cx="5.5" cy="19" r="1.5"></circle></g></svg>