<svg xmlns="http://www.w3.org/2000/svg" viewBox="0 0 48 48"><g transform="matrix(2,0,0,2,0,0)"><defs><style>.c{fill:#78c7eb}.c,.e,.f{stroke:#191919;stroke-linecap:round;stroke-linejoin:round}.e{fill:none}.f{fill:#ffdda1}</style></defs><path d="M7.5 14.5h15a1 1 0 0 0 1-1v-12a1 1 0 0 0-1-1h-15a1 1 0 0 0-1 1v12a1 1 0 0 0 1 1z" style="fill:#e3e3e3"></path><path d="M22.5.5h-15a1 1 0 0 0-1 1v12a1 1 0 0 0 1 1h2.033L23.221.811A.994.994 0 0 0 22.5.5z" style="fill:#ffffff"></path><path class="c" d="M20.5 10.5a.5.5 0 0 1-.5.5h-1a.5.5 0 0 1-.5-.5V4a.5.5 0 0 1 .5-.5h1a.5.5 0 0 1 .5.5z"></path><path d="m7.5 23.5.5-6h2.5V14a5 5 0 0 0-10 0v3.5H3l.5 6z" style="fill:#8aedb2"></path><path class="e" d="M10.5 14a5 5 0 1 0-10 0v3.5H3l.5 6h4l.5-6"></path><path class="f" d="M5.5 7.5A3.5 3.5 0 1 0 2 4a3.5 3.5 0 0 0 3.5 3.5z"></path><path class="c" d="M16.5 10.5a.5.5 0 0 1-.5.5h-1a.5.5 0 0 1-.5-.5V6a.5.5 0 0 1 .5-.5h1a.5.5 0 0 1 .5.5z"></path><path class="f" d="M12.59 20.7a2.35 2.35 0 1 0-2.35-2.35 2.35 2.35 0 0 0 2.35 2.35zm7.228 0a2.35 2.35 0 1 0-2.35-2.35 2.35 2.35 0 0 0 2.35 2.35z"></path><path d="M23.5 23.5a4.683 4.683 0 0 0-7.292 0m0 0a4.683 4.683 0 0 0-7.292 0" style="fill:#d480ff;stroke:#191919;stroke-linecap:round;stroke-linejoin:round"></path><path class="e" d="M13 14.5h9.5a1 1 0 0 0 1-1v-12a1 1 0 0 0-1-1h-12"></path></g></svg>