<svg xmlns="http://www.w3.org/2000/svg" viewBox="0 0 48 48"><g transform="matrix(2,0,0,2,0,0)"><defs><style>.c{fill:none;stroke:#191919;stroke-linecap:round;stroke-linejoin:round}</style></defs><path d="m13.03 17.35-2.56 4.39a.532.532 0 0 1-.59.24.525.525 0 0 1-.38-.5V15z" style="fill:#e3e3e3"></path><path d="m23.5 2-3.85 18.29a.9.9 0 0 1-.88.71.89.89 0 0 1-.5-.15l-5.24-3.5L9.5 15l-8.49-2.36a.7.7 0 0 1-.51-.67.71.71 0 0 1 .43-.65z" style="fill:#ffffff"></path><path class="c" d="M23.5 2 .931 11.323a.7.7 0 0 0 .08 1.318L9.5 15z"></path><path class="c" d="m23.5 2-3.85 18.29a.9.9 0 0 1-.88.71.89.89 0 0 1-.5-.15l-5.24-3.5L9.5 15z"></path><path class="c" d="M9.5 15v6.48a.519.519 0 0 0 .967.261l2.561-4.39"></path></g></svg>