<svg xmlns="http://www.w3.org/2000/svg" viewBox="0 0 48 48"><g transform="matrix(2,0,0,2,0,0)"><defs><style>.e{fill:none;stroke:#191919;stroke-linecap:round;stroke-linejoin:round}</style></defs><path d="M.5 13.5a1 1 0 0 0 1 1h3v4l4-4h12a1 1 0 0 0 1-1v-12a1 1 0 0 0-1-1h-19a1 1 0 0 0-1 1z" style="fill:#e3e3e3"></path><path d="M1.5 14.5h3l14-14h-17a1 1 0 0 0-1 1v12a1 1 0 0 0 1 1z" style="fill:#fff"></path><circle cx="17.5" cy="17.5" r="6" style="fill:#58bd81"></circle><path d="M13.257 21.743a6 6 0 0 1 8.486-8.486z" style="fill:#8aedb2"></path><circle class="e" cx="17.5" cy="17.5" r="6"></circle><path class="e" d="m20.174 15.756-2.905 3.873a.751.751 0 0 1-1.131.08l-1.5-1.5M9.5 14.5h-1l-4 4v-4h-3a1 1 0 0 1-1-1v-12a1 1 0 0 1 1-1h19a1 1 0 0 1 1 1v8"></path></g></svg>