<svg xmlns="http://www.w3.org/2000/svg" viewBox="0 0 48 48"><g transform="matrix(2,0,0,2,0,0)"><path d="M12 .5A11.5 11.5 0 1 0 23.5 12 11.5 11.5 0 0 0 12 .5zM12 18a6 6 0 1 1 6-6 6 6 0 0 1-6 6z" style="fill:#e3e3e3"></path><path d="M12 18a6 6 0 0 1 0-12V.5a11.5 11.5 0 0 0 0 23z" style="fill:#ffffff"></path><path d="M9.428 6.585 5.419 2.577a11.563 11.563 0 0 0-2.832 2.828l4.006 4.007a6.015 6.015 0 0 1 2.835-2.827zm7.983 2.836 4.008-4.007a11.552 11.552 0 0 0-2.833-2.833l-4.008 4.007a6.01 6.01 0 0 1 2.833 2.833zm-2.82 7.984 4.009 4.006a11.538 11.538 0 0 0 2.826-2.828l-4.009-4.009a6.006 6.006 0 0 1-2.826 2.831zm-8-2.821-4.007 4.007a11.589 11.589 0 0 0 2.83 2.828l4.008-4.008a6.016 6.016 0 0 1-2.831-2.827z" style="fill:#58bd81;stroke:#191919;stroke-linecap:round;stroke-linejoin:round"></path><path d="M12 .5A11.5 11.5 0 1 0 23.5 12 11.5 11.5 0 0 0 12 .5zM12 18a6 6 0 1 1 6-6 6 6 0 0 1-6 6z" style="fill:none;stroke:#191919;stroke-linecap:round;stroke-linejoin:round"></path></g></svg>