<svg xmlns="http://www.w3.org/2000/svg" viewBox="0 0 48 48"><g transform="matrix(2,0,0,2,0,0)"><defs><style>.g{fill:none;stroke:#191919;stroke-linecap:round;stroke-linejoin:round}</style></defs><path d="M.623 7.328C1.786 8.648 6.437 13.5 12 13.5s10.212-4.852 11.375-6.172a.5.5 0 0 0 0-.656C22.212 5.351 17.561.5 12 .5S1.786 5.351.623 6.671a.5.5 0 0 0 0 .656z" style="fill:#e3e3e3"></path><path d="M6.817 12.183 17.183 1.817A11.722 11.722 0 0 0 12 .5C6.437.5 1.786 5.351.623 6.671a.5.5 0 0 0 0 .656 21.619 21.619 0 0 0 6.194 4.856z" style="fill:#ffffff"></path><circle cx="12" cy="7" r="3.5" style="fill:#66e1ff"></circle><circle cx="12" cy="7" r="1.5" style="fill:#c2f3ff"></circle><circle cx="17.5" cy="17.5" r="6" style="fill:#ff808c"></circle><path d="M13.257 21.743a6 6 0 0 1 8.485-8.485z" style="fill:#ffbfc5"></path><path class="g" d="m19.621 15.379-4.242 4.243m4.242 0-4.242-4.243"></path><circle class="g" cx="17.5" cy="17.5" r="6"></circle><circle class="g" cx="12" cy="7" r="3.5"></circle><path class="g" d="M12 5.5A1.5 1.5 0 1 1 10.5 7"></path><path class="g" d="M20.471 10.071a23.1 23.1 0 0 0 2.905-2.743.5.5 0 0 0 0-.656C22.213 5.352 17.562.5 12 .5S1.787 5.352.624 6.672a.5.5 0 0 0 0 .656c1.066 1.21 5.062 5.386 10 6.075"></path></g></svg>