<svg xmlns="http://www.w3.org/2000/svg" viewBox="0 0 48 48"><g transform="matrix(2,0,0,2,0,0)"><defs><style>.c{fill:none;stroke:#191919;stroke-linecap:round;stroke-linejoin:round}</style></defs><path d="M22.5 10.5a1 1 0 0 1 1 1v7a1 1 0 0 1-1 1h-21a1 1 0 0 1-1-1v-7a1 1 0 0 1 1-1z" style="fill:#ffffff"></path><path d="M23.5 13.5v-2a1 1 0 0 0-1-1h-21a1 1 0 0 0-1 1v2z" style="fill:#e4f1f5"></path><path class="c" d="M19 10.5h3.5a1 1 0 0 1 1 1v7a1 1 0 0 1-1 1h-21a1 1 0 0 1-1-1v-7a1 1 0 0 1 1-1H7"></path><path transform="rotate(-45.001 19.667 3.543)" style="fill:#ff808c" d="M18.368 1.543h2.599v4h-2.599z"></path><path transform="rotate(-45 18.96 2.836)" style="fill:#ffbfc5" d="M17.661 1.836h2.599v2h-2.599z"></path><path style="fill:#ffbc44" d="m8.212 14.998 4.949-2.119-2.828-2.829-2.121 4.948z"></path><path style="fill:#ffdda1" d="m10.333 10.05-2.121 4.948 3.534-3.534-1.413-1.414z"></path><path style="fill:#ffef5e" d="m20.163 5.876-2.829-2.828-7.001 7.001v.001l2.828 2.829 7.002-7.003z"></path><path style="fill:#fff9bf" d="m18.748 4.462-1.414-1.414-7.001 7.001v.001l1.413 1.414 7.002-7.002z"></path><path class="c" d="m17.334 3.048 1.838-1.838L22 4.038l-1.838 1.838zm-9.122 11.95 4.949-2.119-2.828-2.829-2.121 4.948z"></path><path class="c" d="m20.163 5.876-2.829-2.828-7.001 7.001v.001l2.828 2.829h0l7.002-7.003z"></path></g></svg>