<svg xmlns="http://www.w3.org/2000/svg" viewBox="0 0 48 48"><g transform="matrix(2,0,0,2,0,0)"><defs><style>.c{fill:none;stroke:#191919;stroke-linecap:round;stroke-linejoin:round}</style></defs><path d="M23.5 17.5a1 1 0 0 1-1 1h-11l-4 4v-4h-6a1 1 0 0 1-1-1v-15a1 1 0 0 1 1-1h21a1 1 0 0 1 1 1z" style="fill:#ffef5e"></path><path d="M21.966 1.5H1.5a1 1 0 0 0-1 1v15a1 1 0 0 0 1 1h3.466z" style="fill:#fff9bf"></path><path class="c" d="M23.5 17.518a1 1 0 0 1-1 1h-11l-4 4v-4h-6a1 1 0 0 1-1-1V2.5a1 1 0 0 1 1-1h21a1 1 0 0 1 1 1zm-10.998-5.5v-7"></path><path class="c" d="M12.5 14.25a.25.25 0 1 1-.25.25.25.25 0 0 1 .25-.25"></path></g></svg>