<svg xmlns="http://www.w3.org/2000/svg" viewBox="0 0 48 48"><g transform="matrix(2,0,0,2,0,0)"><defs><style>.a{fill:#e3e3e3}.b{fill:#b2b2b2}.c{fill:none}.c,.d,.f{stroke:#191919;stroke-linecap:round;stroke-linejoin:round}.d{fill:#ffbc44}.f{fill:#b2ffc0}</style></defs><path class="a" d="M23.5 1.5v11H.5v-11a1 1 0 0 1 1-1h21a1 1 0 0 1 1 1z"></path><path class="b" d="M22.5.5h-21a1 1 0 0 0-1 1v3.2a1 1 0 0 1 1-1h21a1 1 0 0 1 1 1V1.5a1 1 0 0 0-1-1z"></path><path class="c" d="M23.5 1.5v11H.5v-11a1 1 0 0 1 1-1h21a1 1 0 0 1 1 1z"></path><path class="a" d="M23.5 12.5v10a1 1 0 0 1-1 1h-21a1 1 0 0 1-1-1v-10z"></path><path class="b" d="M.5 12.499h23v2.836H.5z"></path><path class="c" d="M23.5 12.5v10a1 1 0 0 1-1 1h-21a1 1 0 0 1-1-1v-10z"></path><path class="d" d="M7.5 23.5h-4V15a.5.5 0 0 1 .5-.5h3a.5.5 0 0 1 .5.5z"></path><path d="M13.5 4.5h3v8h-3z" style="fill:#ffffff;stroke:#191919;stroke-linecap:round;stroke-linejoin:round"></path><path class="f" d="m19.284 12.5-3.122-9.093a.5.5 0 0 1 .311-.635l1.892-.65a.5.5 0 0 1 .635.311L22.456 12.5z"></path><path d="M13.5 12.5h-4V4a.5.5 0 0 1 .5-.5h3a.5.5 0 0 1 .5.5z" style="fill:#ff808c;stroke:#191919;stroke-linecap:round;stroke-linejoin:round"></path><path class="d" d="M11.5 23.5h-4V15a.5.5 0 0 1 .5-.5h3a.5.5 0 0 1 .5.5z"></path><path d="M20.5 23.5h-3V15a.5.5 0 0 1 .5-.5h2a.5.5 0 0 1 .5.5z" style="fill:#66e1ff;stroke:#191919;stroke-linecap:round;stroke-linejoin:round"></path><path class="f" d="M17.5 23.5h-3V16a.5.5 0 0 1 .5-.5h2a.5.5 0 0 1 .5.5z"></path><path class="c" d="M5.5 17.5v3m4-3v3"></path></g></svg>