<svg xmlns="http://www.w3.org/2000/svg" viewBox="0 0 48 48"><g transform="matrix(2,0,0,2,0,0)"><defs><style>.c{fill:none;stroke:#191919;stroke-linecap:round;stroke-linejoin:round}</style></defs><circle cx="12" cy="12" r="11" style="fill:#66e1ff"></circle><path d="M12 4.5a10.994 10.994 0 0 1 10.848 9.25A10.995 10.995 0 1 0 1 12a11.087 11.087 0 0 0 .152 1.75A10.994 10.994 0 0 1 12 4.5z" style="fill:#c2f3ff"></path><circle class="c" cx="12" cy="12" r="11"></circle><path class="c" d="M14.5 17H13a1 1 0 0 1-1-1V9.5a.5.5 0 0 0-.5-.5H10m1.745-2.497h0m0-.003a.25.25 0 1 0 .25.25.25.25 0 0 0-.25-.25"></path></g></svg>