<svg xmlns="http://www.w3.org/2000/svg" viewBox="0 0 48 48"><g transform="matrix(2,0,0,2,0,0)"><defs><style>.a{fill:#58bd81}.b{fill:#8aedb2}</style></defs><path class="a" d="M19.5 9V2.5H16v3L19.5 9z"></path><path class="b" d="M17.75 2.5H16v3l1.75 1.75V2.5z"></path><path class="b" d="M12 1.5.5 13h3v9.5a1 1 0 0 0 1 1H9a.5.5 0 0 0 .5-.5v-4a2.5 2.5 0 0 1 5 0v4a.5.5 0 0 0 .5.5h4.5a1 1 0 0 0 1-1V13h3z"></path><path class="a" d="m3.5 14 8.146-8.146a.5.5 0 0 1 .708 0L20.5 14v-1h3L12 1.5.5 13h3z"></path><path d="M3.5 13.5v9a1 1 0 0 0 1 1H9a.5.5 0 0 0 .5-.5v-4a2.5 2.5 0 0 1 5 0v4a.5.5 0 0 0 .5.5h4.5a1 1 0 0 0 1-1V14m-20-1L12 1.5 23.5 13M16 2.5h3a.5.5 0 0 1 .5.5v3" style="fill:none;stroke:#191919;stroke-linecap:round;stroke-linejoin:round"></path></g></svg>