<svg xmlns="http://www.w3.org/2000/svg" viewBox="0 0 48 48"><g transform="matrix(2,0,0,2,0,0)"><path d="M.5 13.5a1 1 0 0 0 1 1h3v4l4-4h12a1 1 0 0 0 1-1v-12a1 1 0 0 0-1-1h-19a1 1 0 0 0-1 1z" style="fill:#e3e3e3"></path><path d="M1.5 14.5h3l14-14h-17a1 1 0 0 0-1 1v12a1 1 0 0 0 1 1z" style="fill:#ffffff"></path><path d="M13.5 14.5h-5l-4 4v-4h-3a1 1 0 0 1-1-1v-12a1 1 0 0 1 1-1h19a1 1 0 0 1 1 1v8" style="stroke:#191919;stroke-linecap:round;stroke-linejoin:round;fill:none"></path><path d="M23.428 13.072a2.121 2.121 0 0 0-3.549-.951l-.9.9 3 3 .9-.9a2.121 2.121 0 0 0 .549-2.049z" style="fill:#ff808c;stroke:#191919;stroke-linecap:round;stroke-linejoin:round"></path><path style="fill:#ffbc44;stroke:#191919;stroke-linecap:round;stroke-linejoin:round" d="m12.7 19.3-1.2 4.2 4.2-1.2h0l-3-3h0z"></path><path transform="rotate(-45 17.34 17.66)" style="fill:#ffef5e;stroke:#191919;stroke-linecap:round;stroke-linejoin:round" d="M12.9 15.539h8.881v4.243H12.9z"></path></g></svg>