<svg xmlns="http://www.w3.org/2000/svg" viewBox="0 0 48 48"><g transform="matrix(2,0,0,2,0,0)"><defs><style>.d{fill:none;stroke:#191919;stroke-linecap:round;stroke-linejoin:round}</style></defs><circle cx="12" cy="11.985" r="11.5" style="fill:#66e1ff"></circle><path d="M3.5 14A11.5 11.5 0 0 1 19.827 3.56 11.5 11.5 0 1 0 7.173 22.425 11.469 11.469 0 0 1 3.5 14z" style="fill:#c2f3ff"></path><path d="M20.147 3.868A11.476 11.476 0 0 0 14.694.8l-.018.075L11.9 2.47a.5.5 0 0 0 .063.9l.283.113A2 2 0 0 1 13.5 5.338v1.146a.5.5 0 0 1-.5.5H9.549a.552.552 0 0 1-.1-.01l-1.3-.26a2 2 0 0 0-1.913.663L4.51 9.4a.5.5 0 0 0-.1.469l.659 2.191a2 2 0 0 0 1.916 1.423h1.7a.5.5 0 0 1 .447.276l.779 1.558a.5.5 0 0 1 .038.345l-.209.836a2 2 0 0 0 .4 1.765l1.54 1.837a.5.5 0 0 0 .7.064l1.9-1.58a2 2 0 0 0 .72-1.537V14.6a.5.5 0 0 1 .053-.224l1.585-3.171a.5.5 0 0 0-.447-.723h-.382a.5.5 0 0 1-.447-.277l-.546-1.091A.5.5 0 0 1 15.2 8.4l2.128-.265a2 2 0 0 0 1.609-1.242l1.209-3.02z" style="fill:#78eb7b"></path><path class="d" d="M23.5 11.984A11.5 11.5 0 1 1 12 .484a11.5 11.5 0 0 1 11.5 11.5z"></path><path class="d" d="m20.147 3.869-1.209 3.02a2 2 0 0 1-1.609 1.242L15.2 8.4a.5.5 0 0 0-.385.719l.546 1.091a.5.5 0 0 0 .447.277h.382a.5.5 0 0 1 .447.723l-1.585 3.171A.5.5 0 0 0 15 14.6v2.446a2 2 0 0 1-.72 1.536l-1.9 1.58a.5.5 0 0 1-.7-.064l-1.53-1.836a2 2 0 0 1-.4-1.765l.209-.836a.5.5 0 0 0-.038-.345l-.779-1.557a.5.5 0 0 0-.447-.277h-1.7a2 2 0 0 1-1.916-1.423L4.412 9.87a.5.5 0 0 1 .1-.469l1.726-2.024a2 2 0 0 1 1.913-.663l1.3.26a.554.554 0 0 0 .1.01H13a.5.5 0 0 0 .5-.5V5.338a2 2 0 0 0-1.257-1.857l-.283-.113a.5.5 0 0 1-.063-.9l2.779-1.59"></path></g></svg>