<svg xmlns="http://www.w3.org/2000/svg" viewBox="0 0 48 48"><g transform="matrix(2,0,0,2,0,0)"><defs><style>.c{fill:#78eb7b}.d{fill:#c9f7ca}.g{fill:none;stroke:#191919;stroke-linecap:round;stroke-linejoin:round}</style></defs><rect x=".5" y="16.5" width="10" height="7" rx="1" style="fill:#ff808c"></rect><path d="M5.5 16.5h-4a1 1 0 0 0-1 1v5a1 1 0 0 0 1 1h4z" style="fill:#ffbfc5"></path><rect class="c" x="13.5" y="10.5" width="10" height="13" rx="1" transform="rotate(180 18.5 17)"></rect><path class="d" d="M18.5 10.5h-4a1 1 0 0 0-1 1v11a1 1 0 0 0 1 1h4z"></path><rect x="13.5" y=".5" width="10" height="7" rx="1" transform="rotate(180 18.5 4)" style="fill:#ffef5e"></rect><path d="M18.5.5h-4a1 1 0 0 0-1 1v5a1 1 0 0 0 1 1h4z" style="fill:#fff7ae"></path><rect class="c" x=".5" y=".5" width="10" height="13" rx="1"></rect><path class="d" d="M5.5.5h-4a1 1 0 0 0-1 1v11a1 1 0 0 0 1 1h4z"></path><rect class="g" x=".5" y="16.5" width="10" height="7" rx="1"></rect><rect class="g" x="13.5" y="10.5" width="10" height="13" rx="1" transform="rotate(180 18.5 17)"></rect><rect class="g" x="13.5" y=".5" width="10" height="7" rx="1" transform="rotate(180 18.5 4)"></rect><rect class="g" x=".5" y=".5" width="10" height="13" rx="1"></rect></g></svg>