<svg xmlns="http://www.w3.org/2000/svg" viewBox="0 0 48 48"><g transform="matrix(2,0,0,2,0,0)"><path d="M15.5 20H13a.5.5 0 0 1-.5-.5v-15A.5.5 0 0 1 13 4h2.5m-6 8h3" style="fill:none;stroke:#191919;stroke-linecap:round;stroke-linejoin:round"></path><path d="M20 4.5a1.75 1.75 0 1 0-1.75-1.75A1.75 1.75 0 0 0 20 4.5zM23.5 8a3.612 3.612 0 0 0-7 0zM20 19.5a1.75 1.75 0 1 0-1.75-1.75A1.75 1.75 0 0 0 20 19.5zm3.5 3.5a3.612 3.612 0 0 0-7 0z" style="fill:#e3e3e3;stroke:#191919;stroke-linecap:round;stroke-linejoin:round"></path><path d="M.5 17a4.5 4.5 0 0 1 9 0z" style="fill:#58bd81;stroke:#191919;stroke-linecap:round;stroke-linejoin:round"></path><path d="M5 11.5a2.75 2.75 0 1 0-2.75-2.75A2.75 2.75 0 0 0 5 11.5z" style="fill:#ffdda1;stroke:#191919;stroke-linecap:round;stroke-linejoin:round"></path></g></svg>