<svg xmlns="http://www.w3.org/2000/svg" viewBox="0 0 193.3 251.5" xmlns:v="https://vecta.io/nano"><style><![CDATA[.G{fill:#1e1d1d}.H{fill:#f5f7f7}]]></style><path d="M29.3 229.9v10.6l-10-1.4 1.3-8.8 8.7-.4z" class="H"/><path d="M26.8 230.1h-1.3c-.2 0-.3 0-.5.1-.2 0-.3.1-.5.1h-2.1l-1.1.1h-.6v1c0 .2-.1.4-.1.6v.4l-.1 1.1c0 .3-.1.7-.2 1v1.1c0 .1 0 .3-.1.3s-.1.1-.1.3v.6l-.1.7c0 .1 0 .3-.1.4-.1.2-.1.4-.1.6v.3h.4l1.8.3h.4l2.3.3 1.4.2c.3 0 .6.1.9.1.2 0 .4.1.6.1.3 0 .6.1.9.1h.2v-6.1c0-.2 0-.3.1-.5s.1-.5.1-.7v-2.3c0-.3.1-.4.2-.3.1 0 .3.2.3.4v2.6c0 .3 0 .7-.1 1-.1.5-.1 1.1-.1 1.6v5.3l-1.7-.2-1-.2c-.3 0-.7-.1-1-.1s-.7-.1-1.1-.1-.7-.1-1-.1l-2.1-.3c-.1 0-.3 0-.4-.1s-.3 0-.4 0H20c-.1 0-.3-.1-.5-.1l-.6-.1v-.4l.1-.8c0-.2.1-.4.1-.6v-.2l.5-3.2v-.3c0-.3 0-.7.1-1 .1-.4.1-.8.2-1.3l.2-1.5 1.7-.1h.1c.4-.1.8-.1 1.2-.1h1.1l2.1-.1 1.9-.2h.4c.2 0 .4.1.3.1 0 0 0 .1-.1.1-.2.1-.5.1-.7.2-.1 0-.3.1-.4.1-.3 0-.5 0-.7.1.1-.3 0-.3-.2-.3h0z" class="G"/><path d="M68.7 230.3l1.3 10.5-10.1-.1.3-8.9 8.5-1.5z" class="H"/><path d="M66.3 230.8l-.4.1h-.2c-.1 0-.3 0-.4.1H65c-.1 0-.3 0-.4.1-.2.1-.3.1-.5.1-.1 0-.3 0-.4.1l-.6.1-1 .2-1.1.2h-.6v.2s0 .1.1.1v4.9c0 .1 0 .3-.1.3s0 .1 0 .3v2.6h9.1v-1.5l-.2-2.1v-1.5l-.1-1.1v-1.5c0-.4-.1-.8-.2-1.3v-.7c0-.3 0-.4.2-.4s.3.1.4.3c0 .1.1.2.1.3 0 .2 0 .5.1.7v.4l.1 1.1c0 .3.1.7 0 1 0 .5 0 1.1.1 1.6 0 .3.1.6.1.9v.3l.1 1v.2c.1.3.1.7.1 1.1l.1.6c0 .3 0 .5.1.8v.3h-8.8c-.2 0-.4.1-.5 0-.2 0-.3 0-.5.1H60v-9.3l1.7-.3h.1l1.2-.3 1.1-.2c.7-.1 1.3-.3 2-.4l1.9-.4h.4c.1 0 .4 0 .4.1 0 0 0 .1-.1.1l-.6.3c-.1.1-.3.1-.4.1-.3 0-.5.1-.7.2l-.7.1z" class="G"/><path d="M74.2 104.3c.5-.6-2.4-6.1-2.4-6.1s4 7.7 5.3 6.9c.9-.5-3.3-7.9-3.3-7.9s5 7.2 6 6.7-3.4-7.9-3.4-7.9 5.3 5.8 5.9 5.2-4.6-7.3-4.6-7.3 4.7 1.9 5.2 1.1c-1.6-.9-8.8-6.7-8.8-6.7l-1.8-2.5S60.6 68.3 59.5 60.1s-.5-13-1.5-18c-.6-3.3-8.3-3.6-8.3-3.6l.8 24.5c.6 7.7 12.6 25.1 15.2 28.6 2.4 4 7.8 13.5 8.5 12.7h0z" class="H"/><path d="M66.9 93.6l-1.2-2.1-.6-.9-1.3-1.9c-.3-.3-.5-.8-.8-1.2l-1.4-2-1.5-2.2-1.1-1.7-1.9-3-2.7-4.8c-1-1.8-1.9-3.7-2.6-5.6l-.4-1a23.69 23.69 0 0 1-.9-3.6l-.1-.5-.4-4.4-.1-3.5-.1-2.1-.2-5.8-.1-5.5v-3.7h1.3c.5 0 1.2.1 1.8.3.5.1 1.1.2 1.6.4.3.1.7.2 1.3.5.6.2 1.1.5 1.6.8.5.4 1 .9 1.2 1.5l.1.5a.9.9 0 0 0 .1.5l.1.9c.1.6.2 1.2.2 1.9l.1 2 .2 3.3.3 4.5.5 4.6c.1.4.2.8.2 1.2l.1.6.2.6.3 1.1.4 1.1c.5 1.5 1.2 3 1.9 4.5l.9 1.9a145.81 145.81 0 0 0 6.2 10.9l2.1 3.4c.3.5.8 1.1 1.1 1.6l.9 1.2.3.3 3.9 3.1 2.5 1.9.8.6.2.2.2.1.2.2.9.6-.5.5c-.1.1-.3.1-.4.2h-1.1l-.4-.1c-.3 0-.5-.1-.7-.2-.4-.1-.9-.3-1.4-.5l-.2-.1.9 1.2 1.7 2.4c.3.4.5.8.8 1.3 0 .1.1.2.2.3l.2.4c.1.2.1.4.2.6v.3c0 .1-.1.2-.1.2-.1 0-.1.1-.2.1H82c-.2 0-.4-.1-.6-.2-.1-.1-.3-.2-.4-.3l-.6-.5-1.2-1.1-3.1-3.2.5-.4 1.7 3 1.5 3.1.3 1c0 .2.1.4.1.6v.4s-.1.1-.1.2l-.1.1h-.2c-.1 0-.2 0-.3-.1h-.2s-.1 0-.1-.1c-.1 0-.2-.1-.3-.2-.2-.1-.3-.3-.5-.4-.3-.3-.5-.6-.8-.9l-1.4-1.8-2.4-3.3.4-.3c.6 1 1.1 2 1.6 3.1l1.1 2.4c.2.5.4 1.1.5 1.7 0 .2.1.3.1.5s0 .4-.3.5c-.2 0-.4 0-.5-.1-.2-.1-.3-.2-.4-.3l-1.2-1.3c-1.2-1.6-2.2-3.4-3.2-5.2l.2-.1.4.8c.6 1.1 1.1 2.3 1.5 3.5.2.5.3 1 .4 1.6 0 .2 0 .2-.1.3 0-.2-.1-.4-.2-.6-.1-.3-.3-.7-.5-1.2l-.7-1.6-1.2-2.5.7-.4c.1.3.3.5.5.8l1.2 2c.5.9 1.1 1.7 1.7 2.6.3.4.6.7 1 1.1.1.1.2.1.3.2 0 0 .1.1.2.1h0v-.3c0-.1 0-.2-.1-.3 0-.2-.1-.4-.2-.6l-.5-1.3-1.1-2.4-1.3-2.5.5-.3 3.5 4.6c.3.4.7.8 1.1 1.2.2.2.4.4.6.5l.2.1s.1 0 .1.1h.2c.1 0 .1-.1.1-.2v-.4l-.3-.8c-.2-.5-.4-1.1-.7-1.6L77 96.3l.3-.2c.2.2.5.6.8.8l2.1 2.1c.7.7 1.4 1.3 2.2 1.9.1 0 .2.1.2.1.1 0 .2.1.3 0v-.2c0-.1 0-.2-.1-.2-.1-.2-.2-.5-.3-.7l-.8-1.3-1.8-2.5-.8-1.1-.9-1.2-.1-.1v-.1c.6.3 1.3.5 1.9.7.5.2.9.3 1.3.4.2 0 .5.1.7.2l.5.1h.5c.1 0 .1 0 .2-.1l-.2-.1-.2-.2-.3-.1-4.2-3.2-2.2-1.7-1.1-.8-.3-.2c-.1-.1-.2-.2-.2-.3l-.4-.5c-1.2-1.6-2.2-3.3-3.2-4.9L68 78.1c-2-3.4-3.8-6.9-5.5-10.5-.3-.7-.6-1.4-.8-2.1-.1-.4-.3-.8-.4-1.1-.2-.3-.3-.6-.3-.9-.2-.4-.3-.9-.5-1.3-.2-.5-.2-1-.3-1.6-.3-2.2-.5-4.4-.7-6.7l-.2-4.1-.2-3.5c0-.3 0-.6-.1-.8 0-.6-.1-1.2-.2-1.8l-.1-.9c0-.3-.1-.6-.2-.8-.3-.5-.7-.9-1.2-1.2s-1.1-.5-1.6-.8c-.8-.3-1.7-.5-2.6-.6-.4-.1-.9-.1-1.3-.2h-1.1l.1 4.8v1.5c.1 1.8.1 3.7.2 5.6l.2 6.8.2 3.4c0 1.1.1 2.2.3 3.3.3 1.3.7 2.6 1.1 3.8.5 1.2 1 2.4 1.6 3.6.1.2.2.4.3.5l3.2 5.9c1 1.6 2 3.4 3.1 5l3.1 4.7 2.4 3.4.2.3c.1.1.1.1.1.2l.4.8c1.7 3.1 3.5 6.1 5.5 9.1l1.1 1.7c.3.3.5.7.8 1l.2.2v.1c-.1 0-.3-.1-.3-.2-.5-.5-.9-1-1.3-1.5l-1.1-1.4c-.5-.6-.9-1.3-1.3-2-.7-1.2-1.4-2.3-2.1-3.4-.9-1.3-1.3-1.9-1.8-2.8h0z" class="G"/><path d="M6.5 49.5c1.5-12.3 4.7-17.9 8.8-20.1 1.7-.9 4.6-2.5 7.8-3.3 7.7-1.9 17.5-2.3 17.5-2.3 1.3.2 2.7.5 4 .8 2.3.5 6 2.1 9.1 3.7 3.5 1.9 6.2 21.9 6.2 21.9s-2.7.7-3.6.5c-.1.8-1.9 7.7-7 17.1-6.9 0-31.3-1.6-31.3-1.6l.4-16.4c-.1-.1-9.2-.4-11.9-.3z" fill="#00d18c"/><path d="M17.9 66.1c-3.3 5.5-6 11.4-8.2 17.4-3.2 9.2 8.1 149.4 8.1 149.4l13.9.8 3.5-128.4 2.5-.6 10.9 72.5c1.6 7.3 7.7 56.2 7.7 56.2l15.5-.8-5.3-72.4c0-5.1-5.4-60.6-9.1-72-2.3-7-5.1-13.9-8.1-20.7l-31.4-1.4z" fill="#cdcdcd"/><path d="M53.4 77.1l2.7 6.9 1.7 5.1.5 1.7.8 3.5.8 4.5 1.2 7.7 1.2 8.5.8 6.5 1.3 11.2 1.7 17.4.6 7.2c0 .8.1 1.6.2 2.5l.5 9.9.2 3.4.8 11.6c0 .1.1 1.3.2 1.6.3 2.5.8 8.7 1.2 14l.8 11 1.1 14.1.6 7.9-3.7.2-6.1.3-6.6.3-.6-5.5-.5-4.3-1.3-9.6-.7-5.5-.6-5.1c0-.8-.3-2.3-.5-4.4l-1.6-11.1-.9-5.9c-.2-1-.3-1.9-.5-2.9s-.4-1.9-.5-2.9l-.3-1.6-.3-1.5-.5-3.1-1.6-10.3-2.2-14.3-2.1-14.7-3.7-26-1.7.4v1.3l-3 113.4a232.33 232.33 0 0 0-.3 11.8v2l-5.4-.3-4.9-.3-2.4-.2-1.4-.1h-.5v-.6l-.1-.8-.8-9.8-.8-10.2-2.9-35.5-.5-7.5-.9-14.6-.3-4.5-1.2-19.4-.4-8.2-.5-12-.2-5.6-.2-11.2.1-5.6c0-.9.1-1.9.2-2.8 0-.2 0-.5.1-.7 0-.3.1-.5.2-.7.1-.5.3-.9.5-1.3 1.4-3.7 3-7.4 4.9-10.9 2.4-4.4 3.3-5.6 3.1-5.1s-1.4 2.8-2.8 5.9L13 77.4c-.8 1.7-1.5 3.5-2.2 5.3l-.3.7c-.1.2-.2.4-.2.7 0 .1 0 .2-.1.3v.3c0 .2-.1.5-.1.7-.1 1-.1 1.9-.2 2.9v7.3c.1 6.6.4 13.1.7 19.7l.8 17.3 1.6 27.3 1.1 16.4.4 5.6 1.1 16.5c0 .9.2 2.5.3 3.6l1.4 18.7.9 11.2v1.1h1.3l8.5.5 3.6.2 3.5-128.4 2.9-.7.4 2.5 1 7.2 1 6.8c.5 2.7.9 6 1.4 9.4l3.1 20.9 2 12.9 1.8 10.9.5 2.7 1 5.8.8 5.8 1.6 11.5 2.1 16.3 2 16 4.4-.2 5.4-.3 5.2-.3-.5-6.5-3.3-43-.9-12.6-.4-6.3-.3-6.3-.1-1.9-2.1-21.3-2.1-18.5-2.5-17.6-.8-4.3-.5-2.1c-.1-.4-.2-.7-.3-1.1l-.3-1.1c-.3-1.4-.8-2.8-1.3-4.2l-1.5-4.2-3.1-7.8-1.7-3.9-.8-1.7h-2.1l-16.9-.8-6.5-.3c-2.9-.2-6.1-.4-5.9-.5H20l11.8.4c1.6 0 4.3.1 7.5.3l6.5.3 3.1.1c.1 0 .3 0 .3.1l.5 1 .6 1.3c1 2 1.9 4.1 3.1 7.1h0z" class="G"/><path d="M39.3 17.4c.1.3 1.2 6.4 1.2 6.4l3.7 1s3.7 7.2 2.1 9.6-6.3 3.9-10.2 1.4c-4-2.5-12.5-9.7-12.5-9.7s6.9-1.1 2.9-15c3.1-1.7 12.8 6.3 12.8 6.3z" class="H"/><path d="M35.2 14.5l-.8-.5-.3-.2c-.2-.2-.5-.3-.7-.5-.1-.1-.3-.2-.5-.3-.3-.2-.5-.3-.8-.4s-.6-.3-.9-.4c-.2-.1-.5-.2-.7-.3l-1.3-.5c-.6-.3-1.3-.3-2-.3-.4.1-.6.1-.5.4l.3 1.2c0 .1.1.3.1.4 0 .4.2 1 .3 1.4v.2c.1.2.2.5.2.7s.1.3.1.5v.5l.1 1.3v1.9l-.1 1.1c-.1.7-.3 1.4-.5 2.1-.1.2-.1.3-.2.5s-.1.4-.3.5c0 .1-.1.2-.2.3l-.2.3c-.1.2-.3.4-.4.5-.2.3-.4.4-.5.4-.2.1-.3.2-.5.3-.2.2-.4.3-.6.4l-.3.2h-.1l.1.1c.1 0 .2.1.3.2l.6.5c.3.3.6.5 1 .8.5.3.9.7 1.4 1.1s.9.8 1.4 1.1l2.9 2.3.6.5 3.9 2.8c.8.5 1.7.9 2.7 1 .3 0 .6.1.9.1h.9c.4 0 .8 0 1.1-.1.6-.1 1.1-.3 1.7-.5l.6-.3c.2-.1.4-.3.6-.4s.4-.3.5-.5l.6-.6c0-.1.1-.1.1-.2l.3-1v-1.2c-.2-1.4-.6-2.7-1.1-4l-.3-.8c-.3-.5-.5-1.1-.7-1.6 0-.1-.1-.2-.1-.3v-.1l-.5-.1-1.6-.5-1.5-.5c0-.4-.1-.6-.2-1l-.3-.8-.2-2.7-.3-1.4c-.1-.6-.1-.8 0-.8s.3.3.4.8c.1.2.1.4.2.7 0 .5.1.9.3 1.4 0 .3.1.6.2.9l.4 2.4v.1h.2l.4.1.8.3 1.5.5.4.1h.3l.2.3c.1.3.3.5.4.8.3.6.5 1.2.8 1.9 0 .2.2.4.3.6.3.6.4 1.3.6 1.9 0 .1.1.3.1.4.2.8.3 1.5.3 2.3 0 .5-.1 1-.3 1.4 0 .1-.1.2-.2.3l-.2.3c-.1.2-.3.3-.5.5-.4.4-.9.8-1.4 1-.3.1-.5.3-.8.4l-.8.3c-.7.2-1.3.3-2 .3s-1.4-.1-2.1-.3c-.8-.2-1.4-.5-2.1-.8-.6-.3-1.2-.7-1.8-1.2l-3.6-2.7c-.3-.2-.5-.4-.7-.5s-.4-.3-.7-.5-.6-.4-.9-.7c-.6-.6-1.3-1.1-2-1.6-.4-.3-.8-.7-1.2-1l-1-.8c-.1 0-.2-.1-.3-.2l-.8-.6-.4-.4h-.1l.7-.2h.4l.2-.1c.1-.1.3-.1.4-.2l.3-.3c1-.8 1.7-1.9 2-3.2 0-.2.1-.3.1-.5l.3-2.1-.1-2.6c0-.4-.1-.8-.2-1.3l-.3-1.3c0-.3-.1-.5-.2-.8l-.1-.6-.4-1.6c0-.1-.1-.3 0-.3s.3-.1.5-.2l.4-.1h.7c.5 0 .9.1 1.3.3.7.2 1.4.5 2.1.8l3.7 2.1c1.1.7 2.3 1.5 3.3 2.4l.6.5c.3.2.5.5.5.5l-.3-.1c-.4-.3-.8-.5-1.2-.8l-.8-.5c-.4-.3-.8-.6-1.3-.8 0 0-.6-.5-.6-.5z" class="G"/><path d="M33.9 18.5c1.3.4 2.7.5 4 .3 4.8-.7 5.4-5.1 4.8-9.9S38.8.6 34 1.2s-8.2 5.1-7.5 9.9c.3 1.8-.2 2.1 1.2 3.3" class="H"/><g class="G"><path d="M26.5 11.8V8.6c0-.3.1-.5.2-.8 0-.2.1-.4.2-.6s.1-.4.2-.6l.3-.6.4-.6c0-.1.1-.1.2-.2.2-.2.3-.5.5-.7v-.1c.1-.3.3-.6.6-.8l.6-.6c.1-.1.3-.2.4-.3l1.1-.8c.4-.2.8-.4 1.2-.5.1 0 .2 0 .3-.1.2-.1.5-.2.7-.2.1 0 .3 0 .4-.1h.7c.3-.1.5-.1.8-.1h.8a.9.9 0 0 1 .5.1c.3.1.5.1.8.2l.3.1c.2.1.4.1.5.2.3.2.7.3 1 .5.6.4 1.2 1 1.7 1.6.1.1.2.3.3.4.6.8 1.1 1.7 1.3 2.7l.4 1.4a.9.9 0 0 0 .1.5c.1.4.1.8.2 1.1v.7c.1.4 0 .8.1 1.1v1.4l-.2 1.4c0 .3-.1.5-.2.8-.2.9-.7 1.7-1.3 2.4-.1.2-.3.3-.4.4l-.2.2c-.1 0-.2.1-.3.2-.2.1-.3.2-.5.3-.1 0-.2.1-.3.1l-.3.2c-.1 0-.3.1-.3.1-.2.1-.5.1-.7.2-.2-.1-.4-.1-.6-.1h-1.3c-.5 0-1.1 0-1.6-.1-.3 0-.5-.1-.8-.2s-.4-.2-.4-.3c.2-.1.3-.2.5-.1h.4c.3.1.5.1.8.1h1.8c.4 0 .8-.1 1.2-.1.3 0 .6-.1.9-.2s.6-.3.8-.4.3-.2.5-.3l.7-.7c.1-.2.2-.3.3-.5s.2-.3.3-.5c0-.1.1-.2.1-.3.2-.4.3-.8.4-1.3l.3-1.6v-2.1l-.1-1.2c0-.4-.1-.8-.2-1.2 0-.2-.1-.4-.2-.6s-.1-.4-.2-.6l-.3-.5-.3-.6c-.3-.8-.8-1.6-1.4-2.2-.1-.1-.3-.3-.3-.4s-.2-.2-.3-.3c-.2-.1-.4-.3-.5-.4-.2-.2-.4-.3-.6-.4s-.6-.2-.8-.3l-.4-.2-.5-.1c-.3-.1-.5-.1-.8-.1h-.2c-.5-.1-1.1 0-1.6 0-.2 0-.4 0-.5.1l-.5.1-1.1.3c-.1 0-.2.1-.3.1-.2.1-.3.2-.5.3-.3.2-.5.2-.6.4-.8.5-1.6 1.2-2.2 2l-.5.7c-.2.2-.3.5-.4.8v.1l-.3.7c-.1.2-.2.5-.2.7L26.9 9c0 .4-.1.8 0 1.2l.2 2.4c0 .3.2.7.4.9l.3.3c.1.1.3.3.2.4 0 0-.1 0-.2-.1-.3-.2-.5-.4-.7-.5-.1-.1-.3-.3-.3-.5l-.2-.9c-.1 0-.1-.2-.1-.4h0z"/><path d="M34.8.8c-1.1 1.5 5.3 4.7 7 5l2.1.2s-.5 0-1.6-1.6C41.1 2.8 39.6-.5 34.8.8zm-.5.1c2.4 3.1-2.6 6.2-4.2 6.9-.6.3-1.3.5-1.9.8 0 0 .5-.1 1.1-2 .7-2 1.7-4.4 5-5.7zm4.4 10.9h.6c0 .1 0 0 0 0h0v-.1h.1l-.1-.1h-.1v-1.5s.1 0 0-.1v-.3h.5v.4s-.1.1-.1.2v1.1l.1.3v.1h.1v.2s-.1 0-.2.1h.1-1.4V12l.1-.1h.1c0-.2.2-.2.2-.1z"/><ellipse transform="matrix(.9998 -.019996 .019996 .9998 -.2013 .7375)" cx="36.8" cy="10.4" rx=".4" ry=".8"/><ellipse transform="matrix(.9998 -.022162 .022162 .9998 -.2011 .9261)" cx="41.7" cy="9.5" rx=".4" ry=".8"/><path d="M33.4 8.7h0c0-.1 0-.1 0 0 0-.1.1-.1 0 0v-.2l.2-.2h.1v-.2h.2v-.6c0-.1 0 0 .1 0l.2-.1s.1-.1.2-.1c0 0 .1 0 .1-.1h1.2v.5h-.2s-.1-.1-.2-.1h-.4s-.1 0-.1.1h-.2l-.2.2c-.1 0-.1 0-.2.1h0-.1s-.1 0-.1.1l-.1.1v.1l.2.2s0 .1-.1.1h0v.1l-.1.1c-.1 0-.1.1-.1.2 0 0 0 .1-.1.2h0-.1V9c-.2-.2-.2-.2-.2-.3h0zM43.8 7h0-.3c0 .1-.1.1-.1.1h-.2m-.2-.2h0-1.4c0 .1 0 .1-.1.1h0l-.1-.1c0-.1-.1-.2-.1-.3h.6m-.2-.3h1.9s.1.1.2.1h.2v.1s-.1 0-.1.1h-.1c.1.4-2.1-.3-2.1-.3zM37 13.6h0c0 .1.1.1 0 0l.1.1h.2l.1.1s0 .1.1.1l.1.1v.1h.5s.1 0 .1.1h1.3s.1 0 .2-.1c0 0 .1 0 .1-.1h.1s.1 0 .1-.1.1 0 .1 0l.1-.1h.1c.1-.1.2-.2.3-.2h0s0-.1.1-.1l.1-.1h.1s.1 0 .1-.1h0c0-.1 0-.1.1-.2l.1-.1h.2c.1 0 .2.1.2.2v.1s-.1.1 0 .1v.1s-.1.1-.1.2l-.1.1c-.1 0-.2.1-.3.2l-.4.4s-.1.1-.2.1l-.2.2c-.1.1-.1 0-.2.1 0 0-.1 0-.2.1 0 0-.1 0-.2.1 0 0-.1.1-.2.1h-1.1c-.1 0-.2 0-.3-.1l-.3-.1c-.1 0-.1 0-.2-.1s-.3-.1-.4-.3c-.1 0-.1-.1-.2-.2h0c-.1 0-.1-.1-.2-.2 0 0-.1-.1-.1-.2-.1-.1-.1-.2-.2-.3.3.1.2-.1.1-.1v-.1s0-.1.1-.1h.4s0 .1.1.1c-.3.2-.2.2-.2.2zm-4.7-4.2s-.5-1.4-1.4-.2.9 2.2.9 2.2l-3.5 3.5c-1 .3-2.7 0-2.7 0 .2-1.3.3-2.6.3-3.9-.1-1.3.4-7.1 3.2-8.8C32.7-.1 34.8.7 34.8.7s-.1 3.2-2 4.1c-.1 0 1.6-.5 1.6-.5l-2.1 5.1z"/><path d="M27.7 14.4s4.1 2 2.8 4.3-4.2 3.4-4.8 2.5-2.9-4-.1-6.2 2.1-.6 2.1-.6zm-.5 7.8s4.1 2 2.8 4.3-4.2 3.4-4.8 2.5c-.6-.8-2.9-4-.1-6.2s2.1-.6 2.1-.6z"/><path d="M27.2 28.1s4.1 2 2.8 4.3-4.2 3.4-4.8 2.5-2.9-4-.1-6.2 2.1-.6 2.1-.6zM43 103h0c-.1.1-.2.1-.2.2s0 0-.1 0l-.1.1c0 .1-.1.1-.1.2 0 0-.1 0-.1.1l-.3.1c-.2 0-.3.1-.4.2s-.3.1-.4.2h-.1c-.1 0-.2.1-.3 0h0c0 .2-.2.2-.3.2s-.2 0-.3.1h-.1c-.2 0-.3.1-.4.2s-.3.1-.4.1h-.1s-.1.1-.2.1h-.3l-.3.1c-.1 0-.2 0-.3.1h-.5c-.1.1-.2 0-.3.1h-.3l-.7.1h-.2c-.3.1-.6.1-.9.1-.2 0-.4 0-.6.1h-4.2c-.1 0-.2-.1-.3 0h-.1c-.2 0-.3.1-.5.1h-.3c-.1 0-.2-.1-.2-.2s0-.3.1-.3c0 0 .1-.1.1 0h1.4c.2 0 .4.1.6 0h1.9l.7-.1h.8c.1 0 .3 0 .4-.1.1 0 .3 0 .4-.1.3 0 .6 0 .8-.1h.4c.1 0 .1-.1.2-.1H38c.2 0 .3 0 .5-.1l.7-.1h.1c.1-.1.3-.1.4-.1l.9-.3c.2-.1.3-.2.5-.2h0c.1-.1.3-.1.4-.3.1-.1.3-.1.3-.2.2-.1.4-.3.6-.5l.5-.5s0-.1.1-.1h.2v.4c0 .1 0 .1-.1.2s-.1.2-.1.3c.1-.1.1 0 0 0h0zM26.5 71.6s-.1.1-.1.2v.1s-.1.1-.1.2c0 0 0 .1-.1.1 0 .1-.1.2-.1.3s0 .2-.1.3-.1.1-.1.2-.1.2-.2.3c-.1.2-.3.3-.3.5l-.4.5-.1.2c-.1 0-.2.2-.3.3h0c0 .2-.1.3-.2.5s-.2.2-.3.3l-.2.2c-.2.1-.3.3-.4.5s-.3.3-.4.4c0 0-.1 0-.1.1s-.1.2-.2.3l-.1-.1s-.1.1-.2.1c0 0-.1 0-.1.1s-.1.2-.3.3l-.3.3s-.1.1-.2.1-.2.1-.3.2-.3.2-.4.3l-.5.3-1 .5c-.1 0-.1.1-.2.1-.4.2-.8.4-1.3.5l-.8.3c-.2.1-.3.1-.5.2-.1 0-.2 0-.3.1-.2 0-.3.1-.5.2-.1 0-.3 0-.4.1h-.2l-.6.2c-.1 0-.2 0-.3.1l-1.2.3h-.3c-.2 0-.3.1-.5 0h-.2c-.2 0-.4.1-.7.1h-.9l-.5.1h-.4c-.2 0-.2-.1-.2-.2 0-.2.1-.3.2-.4 0 0 .1-.1.2 0h.7c.2 0 .4 0 .6-.1h1.4c.2 0 .3-.1.5-.1h.2c.2 0 .4-.1.5-.1h.1c.2-.1.4-.1.6-.2.3 0 .5-.1.7-.2l.9-.3.5-.1c.2 0 .4-.1.5-.2.2-.1.4-.1.6-.2s.3-.2.5-.2c.4-.1.8-.3 1.1-.5.1 0 .2 0 .2-.1.1 0 .1-.1.2-.1 0-.1.2-.2.3-.2l.6-.3.3-.3c.1 0 .2-.1.3-.2h.1c.2-.1.4-.3.5-.5l.8-.8s.1 0 .1-.1c.1-.2.3-.3.4-.4.3-.3.6-.7.9-1.1.2-.2.3-.4.5-.7h0c.1-.2.2-.4.4-.6.1-.2.2-.3.3-.5.2-.3.4-.6.5-1 .2-.3.3-.7.4-1 0-.1.1-.1.1-.2s.2-.1.2-.1v.8c.2 0 .2.1.2.3.1-.2.1-.1 0 0h0zm27.7 12h-1.3c-.1 0-.2-.1-.3-.1-.2-.1-.3-.2-.5-.2a.55.55 0 0 1-.5-.3l-.1-.1c0-.1-.2-.1-.3-.2h0c-.1.1-.3 0-.4-.1-.1 0-.2-.1-.3-.2 0 0-.1 0-.2-.1-.2-.1-.3-.2-.5-.3s-.3-.2-.4-.3l-.1-.1c-.1 0-.2-.1-.3-.2l-.2-.2s0-.1-.1-.1-.2-.1-.3-.2-.2-.1-.3-.2l-.1-.1c0-.1-.1-.2-.3-.2s-.2-.2-.3-.3l-.3-.3-.6-.7-.1-.1c-.3-.3-.5-.6-.8-.9-.1-.2-.3-.4-.5-.6-.1-.1-.2-.3-.3-.4 0-.1-.1-.2-.2-.3s-.2-.3-.3-.4c0-.1-.1-.2-.2-.3l-.1-.2c-.1-.2-.2-.3-.3-.5l-.1-.3-.5-.9c0-.1-.1-.1-.1-.2-.1-.1-.1-.3-.2-.4v-.1c-.1-.2-.2-.3-.2-.5v-.3c0-.1 0-.3-.1-.3l-.1-.2c-.1-.2-.2-.4-.3-.5l-.1-.3c0-.1 0-.2.1-.3h.4l.1.1c0 .1.1.2.2.3 0 0 .1.1.1.2l.3.5c.1.2.1.3.2.5 0 .3.1.5.3.8.1.1.1.3.2.4 0 0 0 .1.1.1.1.1.2.2.2.4v.1c.1.1.2.3.3.5s.2.4.3.5l.5.7.3.4c.1.2.2.3.3.4s.2.3.3.4.3.3.3.4c.2.3.5.5.7.8 0 0 .1.1.1.2s.1.1.2.1.2.1.2.2c.1.2.3.3.4.4l.3.3c.1.1.1.2.3.2.2.2.3.3.5.4.3.2.5.4.8.6 0 0 .1 0 .1.1.2.1.3.2.4.3.3.2.7.4 1.1.6.2.1.4.2.7.3h0c.2 0 .4.1.6.2.2 0 .3.1.5.2l1 .3.9.1h.2c.1 0 .2.1.1.2l-.1.1-.4.1h-.6c-.2.1-.3.1-.3.1h0z"/><path d="M36.6 96c.1 0 .1-.1.2-.2.1 0 .1-.1.1-.1.1 0 .2-.1.2-.2l.1-.1c.1-.1.1-.2.2-.3 0-.1.1-.2.2-.3 0-.1.1-.1.1-.2.1-.1.1-.3.2-.4l.3-.6c0-.3.1-.5.2-.7v-.1c.1-.1 0-.3.1-.4-.1-.1-.1-.3-.1-.5v-.7c0-.3 0-.5-.1-.7 0-.2-.1-.5 0-.7v-.2c0-.1-.1-.3-.1-.4v-.4c.1 0 0-.1 0-.2s-.1-.3-.1-.4l-.1-.5v-.3c0-.1 0-.3-.1-.4-.2-.1-.2-.3-.3-.5 0-.2 0-.4-.1-.6l-.2-1.2v-.3l-.3-1.6-.2-1c0-.2-.1-.4-.1-.6v-.4l-.1-.6v-.5l-.2-1v-.4l-.2-1.4v-1.1c0-.3-.1-.5-.1-.8v-1l-.2-.9v-.5c0-.2 0-.3.2-.3s.3.1.4.2c0 0 .1.1.1.2a.9.9 0 0 0 .1.5v.3l.1.8v2.6c0 .2.1.4 0 .7v.1l.1.7.1.9.2 1.1c0 .2 0 .4.1.7l.1.7c.1.3.1.5.1.7s.1.5.1.7l.2 1.5v.3c0 .1 0 .2.1.3s.1.3.1.4c0 .3 0 .6.1.8 0 .2.1.3.1.5 0 .1 0 .3.1.4v.1l.2.9c.1.4.1.9.2 1.3v.2c0 .2.1.5.1.7v1.8c0 .3-.1.7-.2 1.1v.1c0 .3-.2.6-.3.8s-.3.5-.4.7c-.3.4-.6.8-1 1.1s-.8.6-1.3.8h-.3c-.1 0-.3 0-.3-.1 0 0 0-.1.1-.1.2-.1.3-.2.4-.3s.2-.1.3-.2c.2 0 .3-.2.4-.3h.4zm20-59v1.2c0 .1.1.2 0 .3v1.9c-.1.1 0 .3 0 .4.1.1.1.3.1.5v2.2c0 .1 0 .1-.1.2-.1 0 0 .1 0 .1v3.4c0 .4 0 .9-.1 1.3 0 .3-.1.5-.1.8 0 .2 0 .3-.1.5v.3c0 .2 0 .3-.1.5 0 .1-.1.3-.1.4l-.2.8c0 .1 0 .2-.1.3l-.3 1.1v.3c0 .2-.1.3-.2.5v.1c0 .2-.1.4-.2.6l-.1.3c-.1.1-.2.2-.2.4v.2c0 .3-.1.5-.2.7l-.1.4c-.1.2-.2.2-.3.1l-.3-.3v-.2c.1-.1.1-.3.1-.4v-.2c.1-.2.1-.4.2-.6 0-.2.1-.3.2-.5.1-.3.3-.5.3-.8 0-.2.1-.3.2-.5v-.2c0-.2.1-.3.2-.5v-.1c0-.2 0-.4.1-.6 0-.3.1-.5.2-.7l.1-.9c0-.2.1-.3.1-.5s.1-.4.1-.5c0-.2.1-.4 0-.6v-.6c.1-.4.1-.8.2-1.2v-.7c0-.2.1-.5 0-.7v-8.1l-.1-1.1v-.2c0-.1.1-.2.1-.2h.1c0 .2.1.3.2.4 0 .1.1.2.1.3.2.1.2.3.3.4 0-.2 0-.1 0 0z"/><path d="M48.4 70h-1.6c-.1 0-.3.1-.4 0h-3c-.2-.1-.4 0-.6 0h-.1c-.1.1-.5.1-.7.1h-3.7c-.1 0-.2 0-.3-.1 0-.1-.1 0-.2 0h-5.4c-.7 0-1.3 0-2.1-.1l-1.3-.1c-.3 0-.5 0-.8-.1h-1.3c-.2 0-.4-.1-.6-.1H26l-1-.1-.5-.1-1.8-.2h-.4c-.3 0-.5 0-.8-.1h-.3l-1-.2-.4-.1c-.2-.1-.4-.1-.6-.2h-.3c-.4 0-.8 0-1.1-.1l-.6-.1c-.2 0-.3-.1-.3-.3.1-.1.2-.3.4-.3h.3c.2 0 .4.1.6.1h.4l1 .1.9.2 1.4.3.8.1h.3c.3 0 .5.1.8.1h.2c.3 0 .6 0 1 .1l1.1.1 1.5.1.8.1h2.8l1.9.1h1.2c.3 0 .7.1 1.1 0h12.9l1.7-.1h.3c.2 0 .3.1.3.2s0 0-.1.1c-.2 0-.4.1-.6.2-.1 0-.3.1-.4 0-.2 0-.4 0-.6.1-.2.3-.3.3-.5.3zM24.3 38.3l2.2-2.7.6 3.7-2.8-1z"/><path d="M27.1 39.3l-2.9-1.1 2.2-2.7c0 0 .7 3.8.7 3.8zm-2.8-1l2.7 1-.6-3.6-2.1 2.6z"/></g><path d="M18.8 236.9s4.4 1.6 5.9 1.7c1.5 0 5.3-1.7 5.3-1.7s.6 4.5-.1 7.5c-4.7-.3-9.9.1-14.5.7-2.7.3-5.2 2.3-7.3 2.7-4 .8-6.6 0-6.6 0s-2.7-.3-.8-1.9 18.1-9 18.1-9zm51.8 1.3s-3.9 1.8-5.6 1.9c-1.6.1-5.9-1.9-5.9-1.9s-.7 5 .1 8.2c5.2-.3 10.9.1 16 .8 2.9.4 5.7 2.4 8 2.9 4.4.8 7.2 0 7.2 0s2.9-.4.9-2-20.7-9.9-20.7-9.9h0z" fill="#666"/><path d="M39.5 18.7h-4.7l5.3 1.9c0 0-.6-1.9-.6-1.9zM28.1 234l-8.1.8.3-1.7c0 0 7.8.9 7.8.9zm39.2-1.1l-6.9 1.7v-1.5l6.9-.2z" class="G"/><path d="M6.5 47.1l.5 68.1s2.1 8.6 4.7 10.2l.2.7c.7.2 1.7-.6 1.8-1.6.2.5.2.8.5 1.3 1.2-.1 1.7-1.3 1.4-2.5-.7-2.9-1.2-7.5-1-10.5.8.4 1.3.8 1.3 1.8 0 1.1-.6 4.2 0 5.5.5 1.3.9 1.3.9 1.3s2-7.9 1.7-10.3c-.3-1.9-3.1-8.2-3.1-8.2l3-55.3c0 .1-11.9-.5-11.9-.5z" class="H"/><g class="G"><path d="M18.4 48.2l-.1 2.2v1c-.1.7-.1 1.4-.1 2.1 0 .4 0 .9-.1 1.3l-.1 2.3-.1 2.5-.2 2-.2 3.3-.3 5.1-.3 5.8c0 .3 0 .8-.1 1l-.2 3.4v.5l-.1 4.1-.2 3.2c0 .6 0 1.3-.1 1.9l-.3 5.4c0 1.6-.2 3.5-.3 5.1v2.4c.2.4.4.9.6 1.4l.6 1.5c.2.5.4.9.5 1.4.1.4.3.8.4 1.2l.6 1.6c.1.3.2.5.2.8v1c0 1.2-.2 2.4-.4 3.5l-.4 1.9c-.3 1-.5 2.1-.7 3v.3l-.1.5-.3 1c-.1 0-.3 0-.4-.1-.2 0-.3-.1-.5-.3s-.3-.3-.4-.5c-.1-.1-.1-.2-.2-.3v-.2c-.1-.3-.3-.6-.3-.9s-.1-.5-.1-.8l.1-2.2.1-1.1v-1c0-.3-.1-.5-.3-.8h0v1.5l.4 4.5.3 1.9.3 1.2c0 .2.1.4.1.6 0 .3.1.5 0 .8 0 .5-.2 1.1-.5 1.5-.2.2-.4.4-.6.5-.3.1-.5.2-.8.2h-.4l-.3-.5-.5.5c-.1.1-.3.1-.3.2-.1 0-.2 0-.3.1h-.9v-.1c0-.1-.1-.2-.1-.3-.1-.5-.1-.3-.1-.4-.2-.1-.3-.3-.5-.5a4.44 4.44 0 0 1-.8-1.1c-.7-1.1-1.2-2.2-1.7-3.4l-1.3-3.6-.3-1.1-.2-.6c0-.1-.1-.3-.1-.4V66.6l.1-2.4v-5.1L6 52.5V49c0-1.5.1-1.9.2-1.7a6.28 6.28 0 0 1 .3 1.9c0 .5.1 1.1 0 1.6v16.5l-.1 8v24.6l.1 8.5v6.9l.2.6c.2.8.5 1.7.8 2.4.5 1.7 1.3 3.4 2.1 5 .2.4.5.7.7 1.1.1.2.3.3.4.5.1.1.2.1.2.2l.1.1.2.1.1.4v.2h.3c.2-.1.3-.2.5-.3l.2-.2c0-.1.1-.1.1-.2s.1-.2.1-.3v-.4l.1-.5.1.1v.3l.1.3.3.7c.1.2.1.4.2.6l-.2-.1c.3 0 .6-.2.8-.4.2-.3.4-.5.4-.9v-1c-.1-.4-.2-.7-.2-1.1-.3-1.5-.5-2.9-.6-4.4-.1-.7-.1-1.4-.1-2.1v-3.5s.1 0 .2.1.3.1.4.2a1.38 1.38 0 0 1 .4.3c.1 0 .1.1.2.2 0 0 .1.1.1.2.2.3.3.5.3.8 0 .5 0 1.1-.1 1.6 0 .5-.1 1-.2 1.5s0 1 0 1.5c0 .3 0 .5.1.8 0 .1 0 .3.1.3 0 .1.1.2.2.3 0 .1.1.2.1.2s.1.1.1.2.1.1.2.2.1 0 .1-.1c.2-.6.3-1.3.5-1.9.3-1.1.5-2.1.6-3.2l.1-.8a19.53 19.53 0 0 0 .3-3.4c0-.5-.2-1.1-.4-1.6l-.6-1.6-1.9-4.5-.3-.5v-.1c0-.1-.1-.1-.1-.2v-.3l.1-1.2.1-2.4c0-.5.1-1 .1-1.3 0-1.7.2-3.5.3-5.2l1.1-20.2v-.5l.3-6.3.3-5.5 1.6-10.6v-1.4l-9.6-.5c-.6 0-1.2-.1-1.7-.3h6.4c1.3.1 2.5.1 3.7.1h1.9v.8z"/><path d="M11.2 113.5v.7s.1.1.1.2v1.1c-.1.1 0 .2 0 .3.1 0 .2.2.2.3v.3c0 .1 0 .3.1.4 0 .1.1.3 0 .3v.1s.1.1.1.2v.3s.1.1.1.2.1.2.1.2v.1c0 .1 0 .2.1.2.1.1.1.2.1.3v.3l.1.6v.1c.1.3.2.5.2.8l.1.5c0 .1.1.2.1.3v.2c.1.1 0 .2.1.3v.4c0 .1.1.3.1.4v.2c.1.2.1.5.2.7v.6c0 .1.1.3.1.4v.5l.3.5c0 .1 0 .2.1.3 0 .1 0 .2-.1.2h-.3s-.1 0-.1-.1 0-.2-.1-.2l-.1-.1c0-.2-.1-.3-.2-.4 0-.1-.1-.3-.1-.4 0-.2 0-.4-.1-.6 0-.1-.1-.2 0-.3v-.1c0-.1-.1-.2 0-.3v-.1l-.1-.4-.1-.5-.2-.6c0-.1 0-.2-.1-.3 0-.1 0-.3-.1-.3 0-.1 0-.3-.1-.4l-.1-.3c0-.3-.1-.5-.2-.8v-.3s-.1-.1-.1-.2 0-.3-.1-.4c0-.1 0-.2-.1-.3v-.2c0-.2 0-.3-.1-.5l-.1-.7v-.1c0-.1-.1-.3-.1-.4l-.2-.9c0-.2-.1-.3-.1-.5h0c0-.1-.1-.3-.1-.5v-2c0-.1 0-.1.1-.2 0-.1.2-.1.2-.1v.1c0 .1 0 .2.1.3v.2c.4.3.5.3.4.4 0-.1.1-.1 0 0z"/><path d="M9.4 113.8v.5c0 .1 0 .1.1.2 0 0 .1.1.1.2v.3c0 .1 0 .3.1.3 0 .1.1.3.1.4v.1c-.1.1 0 .2 0 .3h0c.1 0 .2.2.2.3v.3c0 .1 0 .3.1.4 0 .1.1.2 0 .3v.1s.1.1.1.2v.3s.1.1.1.2 0 .2.1.2v.3c.1.1.1.2.1.3v.3l.1.6v.1c.1.3.2.5.2.8a.9.9 0 0 0 .1.5c0 .1.1.2.1.3v.2c.1.1 0 .2.1.3v.4l.1.4v.2l.1.7v1.6l.1.4v.3c0 .1-.1.2-.2.2h-.3s-.1 0-.1-.1 0-.2-.1-.2v-.1c0-.1 0-.3-.1-.4v-2c0-.1-.1-.3-.1-.4 0-.2 0-.3-.1-.5l-.2-.6v-.3c0-.1 0-.3-.1-.3 0-.1 0-.3-.1-.4 0-.1-.1-.2-.1-.3l-.1-.8v-.3s-.1-.1-.1-.2 0-.3-.1-.4c0-.1 0-.2-.1-.3v-.2c0-.2 0-.3-.1-.5l-.1-.7v-.1c-.1-.1-.1-.2-.1-.3 0-.3-.1-.5-.2-.8l-.1-.5-.1-.4c0-.1 0-.3-.1-.4l-.1-.7c-.1-.3-.1-.5-.1-.7v-.2c0-.1.1-.1.1-.1h.1c0 .1.1.2.2.3 0 0 .1.1.1.2s0 .2.1.3c.2-.2.3-.1.3-.1h0zm-1.3.7v.3s0 .1.1.1l.1.1v.6c0 .1.1.2.1.3h0c-.1.1 0 .1 0 .2h0c.1 0 .2.1.2.2v.3c0 .1 0 .2.1.3 0 .1.1.2 0 .3v.1c0 .1.1.1.1.2v.3c0 .1.1.1.1.2s.1.1.1.2v.3c.1 0 .1.2.1.2v.3l.1.5v.1c.1.2.2.4.2.7 0 .1 0 .3.1.4 0 .1.1.2.1.3v.2c.1.1 0 .2.1.3v.3l.1.3v.2c.1.2.1.4.2.6v.5c0 .1 0 .2.1.3v.5c.1.1.1.2.2.3v.2c0 .1 0 .2-.1.2s-.2.1-.3.1c0 0-.1 0-.1-.1s0-.2-.1-.2c0 0 0-.1-.1-.1l-.1-.3c0-.1-.1-.2 0-.3v-1.2c0-.1-.1-.2-.1-.3s0-.3-.1-.4l-.2-.5v-.3c0-.1 0-.2-.1-.3s0-.2-.1-.3c0-.1-.1-.2-.1-.3 0-.2-.1-.4-.2-.6v-.4s-.1-.1-.1-.2 0-.3-.1-.4c0-.1 0-.1-.1-.2v-.2c0-.1 0-.3-.1-.4l-.1-.5v-.1c0-.1-.1-.2-.1-.3 0-.3-.1-.5-.2-.7l-.2-.8c0-.1 0-.2-.1-.3l-.3-1.3v-.1c0-.1.1-.1.1-.1h.1c0 .1.1.2.2.2l.1.1c0 .1 0 .2.1.2.2.2.3.2.3.2h0z"/></g><path d="M7.1 43.2c0 .1-.6 3.3-1 6.5 3.1-1.4 12.3.9 12.3.9v-4.5L7.1 43.2z" fill="#00d18c"/><path d="M19.4 40v1.6c-.1 0 0 .1 0 .2s0 0 0 0c.1 0 .1.2.1.3v6.2c0 .2 0 .4-.1.6v.1c0 .1 0 .2-.1.3v.1c0 .1 0 .2-.1.3 0 0 0 .1-.1.1s-.1.1-.1.2v.7c0 .1-.1.1-.2.1s-.2-.1-.3-.2v-.7c0-.1 0-.2.1-.3s.1-.3.2-.5c0-.1 0-.2.1-.3v-.1c0-.1 0-.2.1-.3h0v-2.5c0-.2 0-.4.1-.6v-.4c0-.1.1-.3 0-.4v-5.1s.1-.1.2-.1h.1c0 .1.1.2.2.2v.3c0 0-.2.2-.2.2z" class="G"/><path d="M168 65.6l4.1 51.9s2 5.9 1.7 8c-.1 1.1.9 4.4-.4 7.6-1.1 3-1.7 2.5-2.7 4.2-.3.6-1 3.1-.4 3.4 2.6-3.3 7.1-8.2 7.7-10.2.5-2-.3-66.6-.3-66.6l-9.7 1.7z" class="H"/><path d="M177.8 64.2v24.5c.1.9 0 2 0 3v.4c-.1 1.2-.1 2.4-.1 3.5v20.9l-.1 2.8v7.2c-.1 1.1 0 2.5-.2 3.6 0 .3-.1.5-.2.8s-.3.5-.5.8c-.3.5-.7 1-1.1 1.5l-5.3 6.6v-.2c0-.4.1-.8.2-1.2s.2-.7.4-1 .5-.6.8-.9.6-.6.9-1 .5-.8.7-1.2.4-.8.5-1.2c.2-.4.3-.9.4-1.3.2-1.1.3-2.2.2-3.3l-.1-1.6v-1.5c0-.7 0-1.4-.2-2.1-.1-.7-.3-1.3-.5-2-.2-.8-.5-1.8-.8-2.5l-.3-1-.2-.5v-.3c0-.7-.1-1.3-.2-2l-.3-3-.1-1.6-.4-5-.2-2.6-.8-9c0-.6-.1-1.3-.2-1.9l-.4-3.7-.1-1.1-.5-4.9-.3-2c-.1-.9-.3-1.8-.3-3l-.1-1.4-.5-5.6-.3-3c-.1-1.3-.2-1.6-.3-1.5-.1.5-.2 1.1-.2 1.7 0 .5 0 1 .1 1.4l.3 3 .1 1.8.4 5 .4 4.4.7 6.9.4 4.1c0 .4.1.9.1 1.4l.4 4.2c0 .3 0 .6.1.9l.4 4.7.5 5.7.3 3.7.1 1.8.3.9v.2c0 .1 0 .2.1.3l.2.4c.5 1.3.9 2.7 1.2 4 .2.7.3 1.5.5 2.2v2.2c.2 1.6.3 3.2.1 4.7a8.3 8.3 0 0 1-.6 2.1c-.3.7-.6 1.3-1 1.9-.3.3-.5.6-.8.9s-.5.6-.8 1c-.1.2-.2.4-.3.5-.1.2-.1.4-.2.6l-.3 1.2v.7c0 .3.1.5.2.7l.2.2v-.1l.8-.8 1.4-1.8 1.2-1.4c.4-.5.8-.9 1.2-1.3l1.4-1.8 1.4-2.2c.3-.4.4-.8.5-1.3 0-.5 0-.9.1-1.4l.1-3.3V79.1l-.1-15.4-.5.1-2.7.4-4 .7-1.5.3c-.7.1-1.4.3-1.4.4h.5l2.9-.3c.4 0 1.1-.1 1.8-.3l3-.5.8-.1.5-.1.2-.1z" class="G"/><path d="M172.2 112.6c-.3 2.3 0 4.7.9 6.9l2.1 6.2c.3 2.1.5 5.7 2.5 4.2-.2-4.1-1.1-12.9-1.1-12.9" class="H"/><path d="M176.7 119.2v2.8l.1.9c0 .3 0 .6.1 1v.2c.1.2 0 .4.1.6v.1c-.1.2-.1.5 0 .7v1.7c0 .3 0 .6.1.9v1c0 .1 0 .2.1.3v.6h-.1l-.2.1c-.1 0-.1 0-.2.1-.1 0-.2 0-.3-.1-.3-.3-.4-.6-.5-1-.1-.5-.3-1-.3-1.5v-.3l-.1-1c0-.2 0-.3-.1-.5l-.1-.5-.4-1.2-.3-.8c-.1-.2-.1-.3-.2-.5 0-.3-.2-.5-.3-.8l-.3-.5-.1-.3-.4-.9-.2-.5-.6-1.6c0-.1-.1-.3-.1-.3 0-.3-.1-.5-.2-.7v-.2c0-.3-.1-.6-.2-.9 0-.1 0-.3-.1-.4-.1-.2-.1-.4-.1-.6v-2c0-.3 0-.3-.2-.3-.1 0-.2.1-.3.3 0 .1-.1.2 0 .3v2c0 .3.1.6.1.9l.3 1.3c0 .3.1.5.3.8 0 .1.1.2.1.3l.3.8s0 .1.1.2l.3.9.4 1 .5 1.3.6 1.6.3.9c0 .3.1.5.2.8l.3 1.8c0 .1 0 .3.1.4v.3a.9.9 0 0 0 .1.5c.1.4.3.7.5 1 .1.2.4.4.6.5h.9c.1 0 .2-.1.3-.2l.2-.1h.1v-.8c0-.5-.1-1.1-.1-1.6v-.2c0-.3 0-.6-.1-.9-.1-.7-.1-1.4-.1-2.1l-.1-1.3v-.1c0-.3 0-.7-.1-1 0-.3 0-.6-.1-.9-.1-.6-.1-1.2-.1-1.8l-.1-1.7v-.3c0-.1-.1-.3-.2-.3v.1c0 .2 0 .4-.1.6v1c-.1-.2-.1 0-.1.1h0z" class="G"/><path d="M166.4 217.9l2.1 14.1 10.8-1.3-.8-19.9-12.1 7.1z" class="H"/><g class="G"><path d="M169.7 216.2l.6-.3c.1 0 .2-.1.3-.2.2-.1.4-.3.6-.3a.76.76 0 0 0 .4-.2l.6-.3c.3-.1.5-.2.7-.3s.3-.2.5-.3l.9-.5 1.3-.8 1.4-.9c.1 0 .2-.1.3-.2.3-.2.6-.4.9-.5h.4v3.5c0 .5 0 1 .1 1.6v1.8a.9.9 0 0 0 .1.5v6.7l.1 2.8v2.3l-1.1.1-2.2.3-1.3.2-.9.1-1.3.2c-.3.1-.7.1-1 .2l-1.4.2-.6.1v-.3l-.5-3.2-.1-.7-.3-1.3c0-.1 0-.3-.1-.4l-.3-1.8c0-.3-.1-.5-.2-.8s-.2-.7-.3-1.1l-.1-.5-.3-2c0-.4-.1-.8-.2-1.1-.1-.5-.2-.6-.3-.5-.1.2-.2.4-.2.6v.5c.1.3.1.7.2 1 0 .2 0 .5.1.7l.3 1.8.3 1.5.5 2.4.3 1.5c0 .1 0 .3.1.5l.3 1.5v.3l.1.8.2 1 2.1-.3 2.5-.3 1.4-.2 1.5-.2 1.6-.2c.3 0 .5 0 .8-.1l.9-.1h.2l-.2-3.5v-2.2l-.1-1.9v-2.5c-.1-.7 0-1.4-.1-2.1l-.1-3v-5.4l-1.2.7-1.9 1.1s-.1.1-.2.1l-1.6.9c-.5.3-1 .5-1.4.8l-2.7 1.5-2.6 1.5c-.2.1-.3.2-.5.3s-.5.3-.4.4h.2l1-.4.6-.3c.3-.2.6-.4 1-.5-.1-.1.1-.2.3-.3h0z"/><path d="M170 224.6l9-.5-.1-3-8.9 3.5z"/></g><path d="M129.9 216.3l-1.9 15.1-11.2-1.6 2.5-18.2 10.6 4.7z" class="H"/><g class="G"><path d="M126.7 214.8l-.6-.3c-.1 0-.2-.1-.3-.1-.2 0-.4-.1-.6-.3l-1-.5c-.2-.1-.4-.3-.7-.3l-.5-.3c-.3-.1-.6-.3-.9-.4l-1.1-.6-.8-.3-1-.4c-.1 0-.1-.1-.2-.1v.2c0 .2 0 .5-.1.7 0 .2 0 .3-.1.5v.1c-.2.4-.3.8-.3 1.2l-.1 1c0 .2-.1.4-.1.5l-.3 1.6-.2 1.5v.4c-.1.3-.1.5-.2.8 0 .2 0 .3-.1.5v.9l-.4 2c0 .2 0 .4-.1.5 0 .3 0 .6-.1.9-.1.4-.1.8-.2 1.3 0 .4-.1.8-.2 1.3l-.4 3v.1l.9.1 3.4.5 2.1.3 1.3.2.9.1 1.3.2c.3 0 .7 0 1 .1l.8.1.5.1.3-2.7.4-3.1c0-.2 0-.4.1-.7l.1-1.3v-.4l.2-1.7v-.7c0-.3 0-.7.1-1l.1-.5.3-1.9.1-1c0-.4 0-.6-.1-.5-.1 0-.3.3-.4.5 0 .2-.1.3-.1.5 0 .3 0 .7-.1 1 0 .2-.1.4-.1.6 0 .6-.1 1.1-.2 1.7-.1.5-.1 1-.1 1.5l-.3 3.8v.5c-.1.5-.1.9-.1 1.4v.3l-.2 1.6-.2 1.4h-.3l-2.4-.4-2.9-.4-1.5-.3-1.4-.2-2.4-.3v-.5c0-.2 0-.4.1-.6 0-.2 0-.4.1-.6.1-.3.1-.5.2-.8 0-.6.1-1.2.3-1.8.1-.4.1-.8.2-1.1l.1-1v-.3c0-.7.2-1.3.3-2l.4-2.8v-.4l.3-1.5.7-4.3.2.1.5.3s.1 0 .2.1c.5.3 1.1.5 1.6.8l1.4.6 2.7 1.3 2.6 1.2c.2.1.3.2.5.2a1.75 1.75 0 0 0 .5.1s-.1-.1-.2-.1l-.9-.5c-.2-.1-.4-.3-.6-.3a4.67 4.67 0 0 1-1-.5c-.3-.2-.5-.3-.7-.4h0z"/><path d="M117.5 227.5s3.5 1.7 5.2 1.8 6.4-2.1 6.4-2.1l-.1 8.6c0 .4-.3.7-.7.8h0c-4.3-.2-8.7 0-12.9.5-3.6.4-6.6 3.1-9.6 3.7-3.4.7-6.8.7-10.3 0 0 0-3.2-.4-1-2.3 2.1-2 23-11 23-11zm1.6-6.5l9.7 3.6.2-2.9-9.9-.7z"/></g><path d="M127.3 89.1l-15.6 129.6 20.4 2.2 14.4-111 19.4 114.9 19.6-6.2-17.9-134.9-40.3 5.4z" fill="#666"/><path d="M169 104.6h0l-.3-.1c-.1 0-.1 0-.1-.1 0 0 0-.1-.1-.1h-.1s-.1 0-.2-.1l-.3-.1c-.1 0-.2-.1-.3-.2h0c-.1 0-.1-.1-.2-.1h0c0-.1-.1-.2-.1-.2s-.1-.1-.2-.1l-.1-.1c-.1 0-.2-.1-.3-.2s-.2-.1-.3-.1c0 0 0-.1-.1-.1h-.3s-.1-.1-.1-.2l-.1-.1h-.1c-.1 0-.1 0-.1-.1s-.1-.1-.2-.2c-.1 0-.1-.1-.2-.1-.1-.1-.3-.2-.4-.3l-.9-.9c0-.1-.1-.1-.2-.2l-.1-.1c0-.1-.1-.1-.2-.2 0-.1-.1-.1-.2-.1l-.1-.1-.3-.2-.6-.6c0-.1-.1-.1-.2-.2h-.1c-.1-.1-.2-.2-.3-.2h-.1c-.1 0-.1 0-.2-.1V99l-.2-.3s-.1-.1-.2-.1h.1c-.1.1-.1.2-.2.3v.1c.1 0 .1.1.1.2 0 0 0 .1.1.1.1.1.1.2.2.3 0 .1.1.2.2.2.1.1.3.2.4.3 0 .1.1.1.2.2l.1.1c0 .1.1.1.2.2h0c0 .1.1.2.2.3l.3.3c.1.1.2.3.3.4s.2.1.2.2c.1 0 .2.1.2.2s.2.1.2.2.1.2.2.2l.5.4h.1s.1 0 .1.1c0 0 0 .1.1.1s.2.1.3.2c0 0 .1.1.2.1 0 0 .1.1.2.1s.2.1.3.3c.2.1.3.2.5.3h.1c0 .1.2.1.3.2l1 .7c.1.1.2.1.3.2.1 0 .2.1.3.1.2.1.4.2.5.3.2.1.3.2.5.3h.1s.1 0 .1-.1v-.1c0-.1-.1-.1-.1-.2 0 0 0-.1-.1-.1s-.1-.1-.2-.1v-.6z" class="G"/><path d="M91.1 32.9c.1-.3.5-.5 1.3-.3.8.3 5.3 2.9 7.1 4 1.7.9 1.8 3.2 1.8 3.2l-5.9 1.3s1.3-2.7-.7-4.5l-3.4-2.7c-.1-.3-.3-.7-.2-1h0z" class="H"/><path d="M92.1 34.4l.3.2.1.1c.1 0 .2.1.3.2 0 0 .1.1.2.1s.2.2.3.3l.3.3c.1 0 .2.1.3.2s.3.2.4.3c.2.1.4.3.6.5l.7.7c.1.1.2.3.3.4v1.6c0 .3 0 .5-.2.8 0 .1-.1.2-.1.3l-.1.3c-.1.3-.2.5-.3.7l-.2.3h.3c.1 0 .3 0 .4-.1.2 0 .3-.1.5-.1s.3-.1.4-.2c.1 0 .2-.1.3-.1h.5l.5-.1c.1 0 .2 0 .3-.1.2-.1.3-.1.5-.1s.5 0 .7-.1.4-.1.7-.2l1.3-.3.5-.1.4-.1V39l-.3-1c-.2-.4-.4-.8-.7-1.1l-.6-.6-.5-.3c-.2-.2-.4-.2-.6-.3-.2 0-.3-.1-.5-.2l-.3-.2-.8-.4c-.1-.1-.3-.1-.4-.2l-1.4-.8c-.1 0-.2-.1-.3-.2l-.6-.3c-.1 0-.1 0-.2-.1l-.8-.4c-.1 0-.3-.1-.4-.1-.2 0-.4-.1-.5-.2l-.3-.1c-.3-.2-.7-.3-1.1-.3a.55.55 0 0 0-.5.3c-.1 0-.1.2-.1.3l.1.1c.1 0 .3 0 .3.1h.9l.2.1a.76.76 0 0 1 .4.2l.8.3c.4.1.8.3 1.2.5.2.1.5.2.7.3.1 0 .2.1.2.1.2.1.5.3.7.3 0 0 .1 0 .2.1.3.2.5.3.8.4.3.2.6.3.9.5l1.2.7.3.2c.1 0 .2.1.3.2.2.1.4.3.5.5.2.2.3.5.4.7l.3.8v.7c-.1 0-.2 0-.3.1l-.4.1c-.1 0-.2 0-.3.1-.1 0-.2.1-.3 0h-.5c-.3.1-.6.2-1 .2l-.6.1c-.2 0-.3.1-.5.1h-.1l-1.1.2h-.5s0-.1.1-.2v-.1s0-.1.1-.1h0V40c0-.1 0-.3.1-.4.1-.7 0-1.5-.3-2.1-.2-.4-.4-.8-.7-1.1l-.1-.1c-.2-.3-.5-.5-.8-.7-.2-.2-.4-.4-.7-.5l-1.3-1-.6-.5-.2-.1-.1-.1s-.1-.1-.1-.2V33c0-.1-.1-.1-.2-.1h-.1c0 .2-.1.3-.1.5 0 .1 0 .3.2.3.2.1.3.3.4.4.1.2.2.3.3.3h0z" class="G"/><path d="M87.1 36.2L98 43.4v-.7l-7-6.5c-.8-.6-1.8-.7-2.8-.4l-1.1.4z" class="H"/><path d="M88.7 35.8h.9c.1 0 .2 0 .3.1s.2.1.3.2c.1 0 .2 0 .3.1s.3.1.4.2c0 0 .1 0 .1.1l.4.4.6.4s.1 0 .1.1c.2 0 .3.3.4.3v.1c0 .2.2.4.3.5.2.1.3.2.3.3s.1.1.2.2c.2.2.4.3.5.5.2.2.3.4.5.5l.4.4c.1 0 .1.1.2.2s.1.1.2.1.1 0 .2.1.2.3.3.4v.1h.1c.1 0 .1.1 0 0h-.1c.2.1 0 0 .1 0h0l-.3-.1c-.2-.1-.1-.1-.1-.1s-.1-.1-.2-.1-.2-.1-.3-.2a.76.76 0 0 1-.4-.2c-.2-.2-.4-.2-.5-.4-.2 0-.3-.1-.5-.3l-.3-.2-.7-.4c-.1-.1-.3-.1-.4-.2-.4-.3-.8-.5-1.3-.8-.1 0-.2-.1-.3-.2-.2-.1-.4-.2-.5-.3-.1 0-.1 0-.2-.1-.3-.2-.5-.3-.8-.4l-.1-.1c-.2 0-.3-.1-.5-.2l-.2-.1-.8-.5c-.1-.1-.3-.2-.5-.3s-.3 0-.3 0v.5c0 .1.1.1.2.2.2 0 .3.2.4.3s.2.1.3.2c.3.1.5.3.7.5.2.1.4.3.7.3.4.1.7.3 1.1.5.2.1.4.3.6.3.1 0 .1.1.2.1.2.1.4.3.6.3 0 0 .1 0 .1.1.2.2.4.3.7.4l.8.5 1.1.7.9.6.4.3.9.6c.2.1.3.2.5.3l.2.1h.1c.2.1.4.2.5.2l.3.1c.1 0 .2.2.2 0v-.7s0-.1-.1-.2l-.3-.3c-.1-.1-.1-.2-.2-.3v-.1l-.7-.4c-.2-.1-.3-.3-.5-.5l-.4-.4-.3-.2-.3-.4c-.3-.3-.7-.6-1.1-.9l-.1-.1c-.2-.2-.3-.4-.5-.5l-2-2.1h-.1c-.1-.1-.2-.3-.3-.3l-.4-.3c-.3-.2-.5-.3-.8-.4-.5-.2-1.1-.3-1.6-.2-.3 0-.5.1-.8.2l-.5.2c-.1 0-.2.1-.3.1s-.2.2-.2.3h.9c.2-.1.3-.1.5-.1.6.4.7.4.8.4h0z" class="G"/><path d="M84.3 37l11.5 6.3 1.6-1.2-9.1-5.5c-.9-.5-1.9-.6-2.8-.2-.1 0-1.2.6-1.2.6z" class="H"/><path d="M86.1 36.4h1c.1 0 .3 0 .3.1.1.1.2.1.3.2l.3.1c.1.1.3.2.5.3.3.1.5.3.7.4l.8.5h.2c.2 0 .3.2.5.3v.1c0 .2.3.3.5.5.1.1.3.2.5.3.1 0 .2.1.3.2.3.1.5.3.7.5s.5.3.7.4c.1 0 .1 0 .2.1a1.38 1.38 0 0 0 .4.3c.1 0 .2.1.2.1.1.1.2.1.3.1 0 0 .1 0 .2.1s.3.3.4.3c.2.1.3.2.5.3l.3.1c.2 0 .3.1.4.3l.5.4c.3.1.2.1.3.1h0l-.2.1-1 .4-.2-.1-.5-.3-1.1-.5c-.2-.1-.4-.3-.7-.3-.2 0-.3-.1-.4-.2-.2-.2-.4-.2-.6-.3-.2 0-.3-.1-.5-.2L89 39.5c-.1 0-.2-.1-.3-.2l-.4-.3c-.1 0-.1 0-.2-.1l-.8-.4c-.1 0-.3-.1-.4-.1-.2 0-.4-.1-.5-.2l-.3-.1-.9-.5c-.2-.1-.3-.2-.5-.2-.2-.1-.3 0-.3.1a.9.9 0 0 0 .1.5c0 .1.1.1.2.2.2 0 .3.1.5.3.1.1.2.1.3.2.3.1.5.3.8.4l.8.3c.4.1.8.3 1.2.5.2.1.5.2.7.3l.3.1c.2.1.5.3.7.3 0 0 .1 0 .2.1.3.2.5.3.8.4.3.2.6.3.9.5l1.2.6c.2.1.5.2.7.3l.7.4c.3.2.5.3.8.4.2.2.5.3.7.4l.5.3 1.3-.9c.1-.1.3-.2.3-.3.1-.1.3-.2.4-.3h.1c-.1-.1-.3-.2-.5-.3l-.6-.3-.4-.3c-.2-.1-.3-.2-.5-.3l-.8-.3s-.1 0-.1-.1c-.3-.2-.6-.3-.9-.5l-1.3-.8c-.1 0-.1-.1-.2-.1-.2-.2-.5-.3-.7-.4L91.1 38l-1-.6s-.1 0-.1.1c-.3-.2-.5-.4-.8-.5-.1-.1-.2-.2-.4-.2-.1-.1-.3-.1-.5-.2-.6-.2-1.2-.3-1.8-.3-.3 0-.6.1-.9.2l-.6.3-.3.1c-.1.1-.2.2-.2.3h.7c.1 0 .3 0 .3-.1.2-.1.4-.2.5-.2-.2-.4-.1-.5.1-.5h0z" class="G"/><path d="M83.7 38.8l12.2 4.5 1.4-1.4-9.8-4c-1-.4-1.9-.3-2.8.3.1 0-1 .6-1 .6z" class="H"/><path d="M85.3 37.9c.1 0 .2-.1.3-.1h.2c.1 0 .2-.1.3 0h.5l.4.1c.1 0 .2 0 .3.1.2 0 .3.1.5.2l1.5.6h.2c.2 0 .3.2.5.2v.1c0 .2.3.3.5.4.2 0 .3.1.5.2.1 0 .2.1.3.1.3.1.5.2.8.4l.8.3c.1 0 .1 0 .2.1s.2.2.4.2c.1 0 .2 0 .3.1.1 0 .2.1.3 0h.2c.1.1.3.2.5.3l.5.3c.1 0 .2.1.3.1.2 0 .3.1.5.2l.6.3c.3.1.2.1.3.1h0l-.2.2c-.1.1-.2.1-.2.2l-.6.3-.2-.1-.5-.2-1.1-.4-.7-.3c-.2 0-.3-.1-.5-.2s-.5-.2-.7-.3c-.2 0-.4-.1-.5-.2l-1.2-.4-.5-.1-1.8-.6c-.2-.1-.4-.1-.7-.2h-.2l-.9-.3h-.4c-.2 0-.4 0-.5-.1l-.3-.1-1-.4c-.2 0-.4-.1-.5-.1-.2 0-.3 0-.3.1 0 .2 0 .3.2.4 0 .1.1.1.3.1s.4.1.5.2c.1 0 .2.1.3.1l.9.3c.3.1.5.2.8.2l1.3.3c.3.1.5.2.8.2.1 0 .2 0 .3.1.3.1.5.2.8.2h.2l.8.3 1 .3 1.3.5c.3.1.5.2.8.2l2.3.9.5.2 1.1-1.3.7-.7c-.1-.1-.3-.2-.5-.2h-1.2c-.2 0-.3-.1-.5-.2s-.4-.2-.5-.2c-.2 0-.3-.1-.5-.2h-.1l-1-.4-1.3-.5c-.1 0-.1 0-.2-.1l-.8-.4-1.8-.8-1-.5h-.1c-.3-.2-.6-.3-.9-.4a.76.76 0 0 1-.4-.2l-.5-.1c-.6-.1-1.3-.1-1.8 0l-.8.3-.6.4c-.1 0-.2.1-.3.2s-.1.2-.2.3h.1c.2-.1.4-.1.6-.1.1 0 .3 0 .3-.1.2-.1.3-.2.5-.3.3 0 .4 0 .4-.1h0z" class="G"/><path d="M85.4 40.7c.4-.5 1.1-.8 1.7-.8l7.8 1.2c.5.1.9 0 1.3-.2.9-.6 1.8-1.1 2.7-1.5.6-.2 2.8-.7 3.5.6.4.8 7.3 12.5 12.6 20.8l7-15.1 12.9 9.4s-11 20.7-14.9 23.6c-3 2.1-7 2.3-11.4-6-3.5-6.8-10.4-22.1-12.1-26l-.8-1.6c-.5-.8-1.2-1.5-1.9-1.8-2.4-1-9-2-9-2l.6-.6z" class="H"/><path d="M94.3 43.3c.5.3 1 .7 1.3 1.2.2.3.3.5.4.8l1.3 2.6.8 1.8.9 2 .7 1.5 1.2 2.5 1.8 3.9 2 4.4 1.6 3.3a2.27 2.27 0 0 0 .1.4c.4 1.1.9 2.1 1.4 3.2l.6 1.2.7 1.2c.2.4.5 1 .8 1.4.8 1.3 1.7 2.5 2.8 3.6.3.3.6.5.8.7.2.1.3.2.5.3s.3.2.5.3a8.3 8.3 0 0 0 2.1.6h1.1c.8-.1 1.6-.4 2.3-.8l.6-.4c.2-.1.4-.3.6-.5l.6-.6c.1-.1.2-.3.3-.4.2-.3.5-.6.7-.9l1.7-2.2 1.6-2.4c.3-.5.6-.8.8-1.3.4-.8.9-1.5 1.3-2.2l1.8-3 1.8-3.2 3.7-6.7c.1-.2.3-.5.4-.7l-.6-.5-.7-.5-7.8-5.7-4.4-3.3-.7 1.4-1.6 3.5c-.3.8-.8 1.6-1.1 2.3l-1.6 3.5-1.3 2.7c-.3.5-.5 1-.7 1.5v.1l-1.7-2.8-1.3-2.1-4.6-7.5-1-1.6-1.9-3-.6-1-1.3-2.1c-.2-.4-.6-.7-1-.9-.4-.1-.8-.2-1.3-.2-.4 0-.8.1-1.1.2s-.6.2-.9.4c-.4.2-.8.5-1.2.7l-.9.6s-.1.1-.2.1l-.2.1c-.4.2-.8.2-1.2.1l-6.7-1-.8-.1h-.8c-.4.1-.8.3-1.1.7-.1.2-.1.3 0 .3.4-.3.9-.4 1.3-.5h.4c.2 0 .5.1.8.1l2.8.4 1.7.3 2.3.3c.5.1 1 0 1.3-.1a.76.76 0 0 0 .4-.2l.3-.2.5-.3c.6-.4 1.3-.7 1.8-1 .6-.2 1.2-.3 1.8-.3.3 0 .5.1.7.1.2.1.4.2.5.4l.9 1.4 1.7 3 2.1 3.4.8 1.2 2.2 3.5c.1.2.3.5.5.8l2.4 3.9 1.3 1.9 1.3 2.1.6-1.3 3.1-6.5 1.7-3.8 1.8-3.8.8.6 1 .7 1.8 1.3 3.5 2.5 3.7 2.7 1.8 1.3.2.1c0 .1 0 .1-.1.2l-.9 1.5-.9 1.6c-.3.5-.5 1-.9 1.5l-1.2 2-2.6 4.5-1.6 2.8-1.4 2.3c-.1.2-.3.4-.4.5-1 1.6-2.1 3.2-3.3 4.7l-1.3 1.5c-.5.4-1 .8-1.6 1-.6.3-1.3.5-1.8.5h-1.1c-.2 0-.3 0-.5-.1l-.5-.1c-.2 0-.4-.1-.5-.2-.2-.1-.3-.1-.5-.3-1.2-.8-2.2-1.8-3-2.9l-.8-1.1c-.3-.4-.5-.8-.7-1.1l-.7-1.2-2.9-6-2.7-5.7c-.1-.1-.2-.2-.2-.4l-2.2-4.8-1.9-4.2-1.8-4c-.3-.7-.6-1.3-1-2-.2-.3-.3-.6-.5-1-.2-.3-.5-.7-.8-1s-.6-.5-.9-.7-.7-.3-1-.4c-.7-.3-1.3-.4-1.9-.6l-3.9-.8-1.4-.3c-.3 0-.7-.1-1-.1l.3.6.3-.5-.4.4-.1-.3 2.8.6c.4.1 1 .3 1.7.4 1 .2 2 .4 2.9.8.5.4 1.1.5 1.8.9h0zm47.3 57c.6.5 27.6-4.4 27.6-4.4l.7 4.4h-28.3z" class="G"/><path d="M166.9 72.9c-.4 5 1.4 17.8 2.4 25.2 0 0-35.3 6.8-43.7-.7 2.5-17.2 1.5-24.5 1-34.2-3.3-2-9.3-5.5-11.6-7.9 3.7-3.9 6.6-20.4 12.7-23.8 3.3-1.2 5.7-1.6 10.4-1.2 5.9.5 10.8 2.5 18.3-.4 0 0 14.8 5.7 15.6 6.3 4.1 3.7 7.4 35 6.9 34.6 0 0-7.4.6-9.5 2.1" fill="#ed745e"/><path d="M179.2 65.8l-.3-2.7-.2-1.3-.3-2.6-.3-1.7-.4-2.8-.5-3.1-.4-2.3-.9-4-1.7-6.1c-.2-.6-.5-1.1-.8-1.6-.1-.3-.3-.5-.5-.8-.1-.1-.2-.3-.3-.4l-.2-.2c-.1 0-.1-.1-.2-.1l-1.6-.8-1.6-.7c-.4-.2-.8-.3-1.2-.4l-3.8-1.5s-.4-.2-.5-.2c-.8-.4-2.8-1.2-4.5-1.9l-1.8-.7-.3-.1c-.1-.1-.3 0-.4 0l-.5.2-1 .3-1.1.3-1.1.2c-2.1.4-4.2.5-6.4.3l-6-.8-1.4-.2c-1.2-.2-2.2-.3-3.4-.2-.7 0-1.3 0-1.9.1-.6 0-1.3.1-1.7.3-.3.1-.8.2-1.5.4l-1.9.5-.3.1h-.2l-.1.1-.5.3c-.3.2-.6.4-.8.7l-1.4 1.6c-.5.6-.8 1.2-1.2 1.8l-1.1 2-1.5 3.5c-.7 1.4-1.3 3.3-1.9 4.8l-1.9 5-1.3 2.5c-.1.2-.3.4-.4.6l-.2.3s0 .1-.1.1l-.6.6 1.1 1.1c1.4 1.2 2.9 2.3 4.4 3.3l1.9 1.3 3 1.8.8.5.3.2.5 9.1v9.1l-.2 2.8-.2 2.9-.4 3.6-.8 5.6c0 .2 0 .3-.1.5h0l.3.3.3.2c.1 0 .2.1.2.2l1 .6c.7.3 1.3.7 2 .9a18.66 18.66 0 0 0 2.2.7c2.2.5 4.6.8 6.8.9l3.6.1c4.1 0 8.3-.3 12.4-.7l2.6-.3c1.7-.2 3.5-.4 5.1-.7l1.5-.3c1.2-.2 2.3-.4 3.4-.5l1.6-.3.5-.1.3-.1v-.3l-.1-1-.5-2.9c-.3-1.3-.5-2.6-.7-4.3l-.3-2-.8-8.1-.3-4.3v-1.8c0-.4 0-.4-.1-.3-.1.3-.2.5-.2.8 0 .4-.1 1-.1 1.6v2l.3 4.3c0 .8.2 1.8.3 2.7l.9 7.1.5 3.2.3 1.5c.1.5.2.9.2 1.4h-.5l-3.5.6-4.8.8-5.7.7c-.5.1-1.3.1-1.9.2l-5.8.4h-1.3c-2.2 0-4.3.1-6.5 0-2.6 0-5.2-.4-7.8-1-1.6-.4-3.2-1-4.6-2-.2-.1-.4-.3-.5-.3-.1-.1 0-.1 0-.1v-.4l.6-3.9.4-3 .3-3c.2-2.1.3-4.3.4-6.4.1-2.3 0-4.6 0-6.8s-.2-4.3-.3-6.4l-.2-3.4v-.2l-.1-.1-.4-.3-.8-.4-1.4-.8c-1.9-1.1-3.8-2.3-5.6-3.5-.8-.5-1.4-1-2-1.5-.2-.1-.4-.3-.5-.5l-.3-.2-.4-.4s.1-.1.1-.2l.4-.4c.7-.9 1.3-1.9 1.7-3 1-2.3 1.8-4.7 2.8-7.1l1.7-4.3c.5-1.2 1.1-2.4 1.7-3.5l.5-.8c.7-1.2 1.5-2.3 2.5-3.2.3-.2.5-.4.8-.6l.4-.2.5-.2c.7-.2 1.3-.4 1.9-.5 1.8-.4 3.8-.6 5.6-.5a55.09 55.09 0 0 1 5.7.6l1.6.3c1.1.2 2 .3 3.1.4s2.1.1 3.2 0c1.3-.1 2.5-.3 3.8-.6l1-.3c.3-.1.6-.2 1-.3l.9-.3h.3l7.5 3 4.1 1.7 2.4.7c.4.2.7.3 1 .5l.3.1.2.1.4.4.4.5c.6 1.1 1.1 2.3 1.3 3.5.4 1.2.8 2.5 1 3.7.5 2.1 1 4.4 1.3 6.6.8 4.2 1.3 8.4 1.8 12.7l.4 3.5.1 1.8v1.1l-1.3.1c-.4 0-.9.1-1.3.2-.9.1-1.7.3-2.5.4s-1.4.3-2.2.5c-.5.1-1 .3-1.3.6-.4.2-.6.4-.6.4.1 0 .2 0 .3-.1l.3-.1c.1 0 .2-.1.3-.1a8.3 8.3 0 0 1 2.1-.6 6.28 6.28 0 0 1 1.9-.3l2.6-.3c.7-.1 1.3-.2 1.8-.2h.3c.1-.1 0-.2 0-.3v-.7c0-.4 0-.9-.1-1.3.3-1.3.2-2.2.1-3.2h0z" class="G"/><path d="M143 21.9l-3.9 9c-1.2-.2-1.4.1-1.4.1s2 8.3 7.7 8.5c7 .1 10.9-6.5 11.7-9-1.3-1.6-2.6-8.6-.8-15.4-3.2-2-13.3 6.8-13.3 6.8h0z" class="H"/><path d="M146.6 19.1l.7-.5.3-.2c.2-.2.4-.3.6-.4.1-.1.3-.2.4-.3.3-.2.5-.3.8-.4s.5-.3.8-.5c.2-.1.4-.3.6-.3l1.1-.5c.5-.3 1.1-.5 1.7-.8s1.3-.4 1.9-.4h.7c.1 0 .2 0 .3.1h.1v.2s0 .1-.1.2l-.3.6c-.1.3-.1.6-.2.9l-.1.6c0 .2-.1.4-.1.6l-.1.7-.2 2v4.1c0 .2 0 .4.1.5 0 .2.1.3.1.5l.2 1.2.3 1.3.2.7.5 1.1.1.2v.1c-.1.3-.2.5-.3.7-.1.3-.3.5-.4.7l-.4.7-1.9 2.6-.5.5c-1 1-2.2 1.8-3.4 2.3-.8.4-1.6.6-2.4.8l-.8.1H145c-.5-.1-1-.2-1.4-.5-.4-.1-.8-.3-1.1-.6-.2-.1-.4-.3-.5-.4l-1.3-1.5-.6-.9a11.95 11.95 0 0 1-1.5-3.5l-.1-.4v-.2h1.2c0-.2.1-.3.2-.4l.1-.3.8-2 .3-.8c.1-.4.3-.8.5-1.2.1-.2.2-.4.3-.5l1-2.2c.2-.4.4-.8.5-1.2.2-.5.2-.7.1-.7s-.3.3-.5.5c-.1.2-.2.3-.3.5-.2.4-.3.8-.5 1.2-.1.2-.3.5-.3.8l-.9 2-.8 1.8c-.2.5-.4.9-.5 1.3l-.3.7v.1h-1c-.3 0-.5.1-.6.3 0 .1 0 .2.1.3v.2l.1.4c0 .1.1.4.2.6.2.6.5 1.1.8 1.7.1.1.1.3.2.4.3.6.7 1.2 1.1 1.8.5.7 1 1.3 1.6 1.8.8.7 1.7 1.2 2.7 1.4.6.1 1.2.1 1.7.1a11.02 11.02 0 0 0 1.8-.2l1-.3c.3-.1.6-.3 1-.3l.9-.4.4-.2c.1-.1.3-.2.4-.3 1.2-.8 2.1-1.6 3-2.7.2-.2.4-.4.5-.6s.3-.4.5-.6.5-.5.6-.8l1.1-2c0-.1.1-.2.1-.3l.1-.3v-.1l-.1-.1-.1-.2s-.1-.1-.1-.2-.1-.2-.2-.3c-.2-.3-.3-.7-.4-1.1 0-.1 0-.2-.1-.3-.3-.8-.4-1.6-.5-2.5-.2-1.2-.2-2.4-.3-3.5v-1.5c0-.4 0-.6.1-1l.3-2.3.3-1.1.3-1.2.1-.3h-.2c-.2-.1-.3-.1-.5-.2-.3 0-.5-.1-.8-.1a4.44 4.44 0 0 0-1.3.2h-.2c-.8.2-1.4.5-2.1.8l-1.7 1-3.2 2.1-2.9 2.2c-.2.1-.4.3-.5.5-.3.2-.5.5-.5.5.1 0 .2 0 .2-.1.4-.3.7-.5 1.1-.7.3-.1.5-.3.7-.5.4-.3.8-.5 1.1-.8-.1-.1.1-.3.4-.5h0z" class="G"/><path d="M148.7 23c-1.4.4-4.8 1.2-6.2 1-3.8-.4-3.4-6.3-3-11.5.6-8.4 4-9.1 9.1-8.3 5 .7 8.6 5.5 7.9 10.7-.3 1.9.2 2.3-1.3 3.6" class="H"/><g class="G"><path d="M156.4 15.6c0-.2 0-.4.1-.6v-2.6c0-.2 0-.4-.1-.5 0-.3-.1-.6-.2-.9l-.6-1.4c-.1-.3-.2-.5-.4-.7-.1-.3-.3-.5-.5-.7 0-.1-.1-.2-.2-.2-.2-.2-.4-.5-.6-.8 0 0 0-.1-.1-.1-.2-.3-.5-.6-.8-.9-.3-.2-.5-.4-.8-.6-.1-.1-.3-.2-.5-.3-.2-.2-.5-.3-.7-.4l-.6-.4c-.2-.1-.5-.2-.7-.3-.3-.1-.5-.1-.7-.2-.1 0-.3 0-.3-.1-.3-.1-.5-.1-.8-.2h-1.3l-.9-.1h-1.4l-.9.1-.6.1-.2.2c-.2 0-.4.2-.6.3l-.3.2c-.1 0-.2.1-.3.2l-.3.2-.8.8c-.3.3-.5.7-.6 1.1l-.3.5c-.2.5-.4 1-.5 1.6l-.3 1.6c-.1.3-.1.7-.1 1l-.1 1-.1 1.3v.8l-.1 1.3v1.5c0 .5 0 1.1.1 1.6l.1.8c.1 1 .5 2 1.1 2.8l.2.3.3.3c.3.3.7.5 1.1.6.1 0 .3.1.4.1.5.1 1.1.1 1.5 0l.7-.1 1.4-.3c.6-.1 1.2-.2 1.7-.4l1-.3c.4-.1.5-.2.4-.3s-.3-.1-.6-.1c-.2 0-.3 0-.5.1-.3.1-.6.2-.9.2l-.6.1-1.4.3-1.3.2c-.3 0-.7.1-1 0a1.93 1.93 0 0 1-1-.3c-.4-.2-.7-.5-1-.8l-.3-.4c-.2-.4-.4-.8-.5-1.2 0-.1 0-.2-.1-.3l-.3-1.5c-.1-.6-.1-1.2-.1-1.8l.1-2.3c0-.5 0-.9.1-1.4l.1-1.4.2-1.5.3-1.4.2-.8c0-.3.2-.5.3-.8.1-.2.2-.5.3-.7s.2-.5.3-.7l.3-.5a.78.78 0 0 1 .4-.4l.9-.9.4-.2.3.6c.1 0 .1 0 .2-.1l.4-.1 1-.3.9-.1h.2c.6 0 1.3 0 1.8.1.9.1 1.7.2 2.5.5l.4.1c.4.2.9.3 1.3.6 1 .5 1.8 1.3 2.6 2.1l.9 1.2.3.5s0 .1.1.1l.6 1.6.1.3.1.4c.1.3.1.5.1.8.1.9.1 1.9 0 2.8-.1.5-.1.9-.1 1.4 0 .4-.2.8-.4 1.1-.1.1-.2.3-.3.4s-.3.4-.3.4.1 0 .2-.1l.7-.6c.1-.2.3-.3.3-.5l.2-1c-.2-.2-.2-.4-.2-.6h0zm-12.6-.2h-.6c0-.1-.1-.1-.1-.1h0c0-.1.1-.2.1-.3v-2h-.5v.4s.1.1.1.2v1.1c0 .1 0 .2-.1.3v.2s-.1 0-.1.1c0 0 0 .1-.1.2l-.1.1s0 .1-.1.1h.1c.1 0 .3 0 .4-.1h1.6v-.1l-.1-.1c-.3-.1-.3-.1-.5 0h0z"/><ellipse transform="matrix(.02037 -.9998 .9998 .02037 128.9975 158.9046)" cx="145.6" cy="13.6" rx=".8" ry=".5"/><ellipse transform="matrix(.02037 -.9998 .9998 .02037 124.7937 153.2148)" cx="140.6" cy="12.9" rx=".8" ry=".5"/><path d="M148.6 12h0l-.1-.1v-.1s-.1 0-.1-.1 0-.1-.1-.1h-.1v-.1l-.1-.1s0-.1-.1-.1h-.1V11c0-.1 0 0-.1 0l-.2-.1c-.1 0-.1-.1-.2-.2 0 0-.1 0-.1-.1h-1.5v.5h.9l.2.1h.2s.1 0 .1.1 0 0 .1.1c.1 0 .1.1.2.1h0s.1 0 .1.1h.1s.1 0 .1.1.1.1.2.1h0l.1.1c.1 0 .1.1.2.2l.1.1s0 .1.1.1l.1.1c.1 0 .1.1.1.2 0 0 .1.1.1.2h.1v-.1c-.3-.6-.4-.6-.3-.7h0zm-10.2-1.8h.3c0 .1.1.1.1.1h.4v-.1h1.5l.1.1h.1s.1 0 .1-.1 0-.1.1-.2H139c-.1 0-.2 0-.2.1l-.4.1c.1-.1 0 0 0 0-.2 0-.2 0-.3.1h0v.1s.1 0 .1.1c0-.3.1-.2.2-.3 0 .1 0 0 0 0h0zm3.2 7.1s2.5-.2 3.3-.6c.1 1.7-1.5 3.9-2.4 2.8-.6-.5-.9-1.3-.9-2.2z"/><path d="M141.6 18.1v.6s0 .1.1.2l.1.3c0 .1.1.2.2.3h0l.3.3s.1.1.2.1h.4c.1 0 .2 0 .3-.1h.1c.1 0 .1 0 .2-.1h.1v-.1c0-.1 0 0 0 0s.1-.1.2-.1l.5-.5c0-.1.1-.1.1-.2.1-.2.2-.3.2-.5v-.1c.1-.2.2-.4.2-.6v-1h-.1c-.1 0-.2 0-.2.1h-.4l-.3.1h-.2l-.5.1h-1.6c-.1 0-.1 0-.1.1l.1.1h1c.1 0 .3-.1.4-.1h.4c.1 0 .2 0 .3-.1h.3l.4-.1h.5v.8c0 .1 0 .2-.1.3 0 .2-.1.4-.2.5v.2l-.1.1c0 .1-.1.2-.2.3 0 0-.1.1-.1.2l-.4.4c-.1 0-.1.1-.2.1s-.1.1-.2.1h-.4a.55.55 0 0 1-.5-.3c-.1-.1-.2-.2-.2-.3h0c0-.1-.1-.2-.2-.3l-.1-.3c-.2-.2-.2-.3-.3-.5s0-.3 0-.5v-.2c0 .1 0 .1-.1.2v.3c.1.1.1.1.1.2h0zm10.6-3s1.5-1.8 2.1.1c.4 1.5-1.3 3.8-2.2 2.5-.3-.4 3 4.7 3 4.7s.5-3.6 1.5-5.6c1.5-2.9 2.2-11.1-3.8-14.7s-4.2-.6-9.4-1.9-9 3.3-6.1 6.2 12.7 2.1 13.4 1.4c.7-.8 1.3-.3 2 2.4.5 1.6.3 3.3-.5 4.9zm-6.5 94.3h0c.1 0 .1.1 0 0h0l.1.3h.1c.1 0 .1 0 .2.1 0 0 .1.1.2.1h.1c0 .1 0 .1.1.2h.1c.1 0 .1 0 .2.1h.4s0 .1.1.1h.5c0 .1.1 0 .1.1h.4c.1 0 .3.1.4.1h1.9c.1 0 0 0 .1-.1l.1-.1h.4v-.2c0-.1 0-.2-.1-.3h-.6c-.1.1-.2.1-.3.1H148s0-.1-.1 0h-.4c-.1 0-.1 0-.2-.1-.1 0-.2-.1-.3-.1h0l-.1-.1c-.1 0-.3-.1-.3-.2-.1 0-.1-.1-.2-.1h0c0-.1-.1-.1-.2-.1 0 0-.1 0-.2-.1-.1 0-.2-.1-.3-.2s-.2-.1-.3-.2h0s-.1 0-.1.1v.4s.1 0 .1.1l.3.1zm-18.5-2.8h.7s.1 0 .2-.1.2-.1.3-.1.2-.1.3-.2h0c0-.1.1 0 .2-.1h0c.1.1.2 0 .3 0 0 0 .1-.1.2-.1h.1c.1 0 .2-.1.3-.1s.2-.1.3-.2h.1c.1 0 .1 0 .2-.1h.1c.1 0 0 0 0-.1v-.1h.2s.1 0 .2-.1l.1-.1s.1-.1.2-.1.2-.1.2-.1c0-.1.1-.1.2-.2l.4-.3.1-.1c.2-.1.4-.3.5-.4l.3-.3c.1 0 .1-.1.2-.2l.1-.1c.1 0 .1-.1.2-.2 0-.1.1-.1.1-.2l.1-.1c.1-.1.2-.2.2-.3l.1-.1.4-.5s0-.1.1-.1c0 0 .1-.1.1-.2v-.1c.1-.1.1-.2.2-.3v-.2c0-.1 0-.2.1-.2v-.1l.3-.3s.1-.1.1-.2 0-.1-.1-.2c-.1 0-.2-.1-.3-.1h-.1c0 .1 0 .1-.1.2 0 0-.1 0-.1.1s-.1.2-.2.3-.1.2-.1.3c0 .2-.1.3-.2.4s-.1.2-.1.3v.1s-.1.1-.2.3h0c-.1.1-.2.1-.2.2l-.3.3c-.1.1-.3.2-.3.3l-.4.4c-.1 0-.2.1-.3.2-.1 0-.2.1-.2.2-.1.2-.3.3-.5.4l-.1.1h-.1c-.1 0-.1 0-.2.1s-.2.2-.3.2-.1.1-.2.1c0 0-.1.1-.2.1-.1.1-.2.2-.3.2-.2.1-.3.2-.5.3h-.1l-.3.1c-.2.1-.4.3-.6.3-.1.1-.3.1-.4.2h0l-.3.1c-.1 0-.2.1-.3.1-.2.1-.3.2-.5.2l-.5.2h-.1v.2c.1 0 .2 0 .3.1h.4s0 .1 0 0h0z"/><path d="M112.8 216.4l.3.1h.5c.1 0 .2 0 .3.1s.2.1.3.1h.2c.1 0 .3.1.4.1l.6.1c.2.1.4.1.6.2h.1c.1 0 .3.1.4 0h0c0 .1.3.2.4.2s.3 0 .4.1h.2c.2 0 .4.1.6.2s.4.1.6.1h.1c.1 0 .2.1.3.1h.6l.4.1c.1 0 .3.1.4.1h.2c.1 0 .3 0 .3.1l.5.1a.9.9 0 0 1 .5.1l1 .2h.2l1.3.2.8.1c.2 0 .3.1.5.1h.3a.9.9 0 0 1 .5.1h.6l1 .1 1.2.1h2.4c.3 0 .5.1.8.1h.4c.2 0 .2-.1.2-.2s-.1-.2-.2-.3h-4.1c-.2 0-.4-.1-.6-.1-.3 0-.5 0-.8-.1l-1-.1h-.5c-.2 0-.4 0-.6-.1-.2 0-.4 0-.6-.1-.2 0-.4-.1-.6-.1l-1.2-.2h-1c-.1-.1-.2-.1-.3-.1-.3 0-.5 0-.7-.1-.1 0-.3-.1-.4-.1s-.3 0-.4-.1h-.1c-.3 0-.5-.1-.8-.2l-1-.2h-.2c-.2-.1-.4-.1-.6-.1l-1.3-.3-.8-.2c-.2-.1-.5-.1-.7-.2l-.6-.1-2.1-.6c-.1 0-.2 0-.2.1v.1c.1.1.3.2.3.3s.1.1.2.1a.76.76 0 0 1 .4.2c-.1-.1 0-.1.1-.1h0zm58.8 5.2h1c.1 0 .2-.1.3-.1s.2 0 .3-.1c0-.1.1 0 .2-.1.1.1.2.1.3 0h.6c.1 0 .2 0 .3-.1h.4c.1 0 .1 0 .1-.1s0 0 .1 0h.5s.1-.1.2 0h.3c.1 0 .2-.1.3-.1l.5-.2h.1c.3 0 .5-.1.7-.2l.4-.1c.1 0 .2 0 .3-.1h.2c.1 0 .2 0 .3-.1 0-.1.1-.1.2-.1h.1l.3-.1c.1 0 .1 0 .2-.1.2 0 .4-.1.6-.2h.1c.1 0 .2 0 .3-.1h.1l.3-.1.1-.1c0-.1.1-.1.2-.1h.1c.1 0 .3 0 .4-.1.1 0 .1 0 .2-.1s.1-.1 0-.2c0-.1-.1-.2-.2-.3h-.1s-.1.1-.2 0h-.1c-.1 0-.2.1-.3.1s-.2.1-.3.1c-.1.1-.3.2-.5.3-.1 0-.2.1-.3.1h-.1c-.1 0-.2 0-.3.1h-.1c-.1 0-.2 0-.3.1l-.4.1c-.1 0-.3.1-.5.1-.1 0-.2.1-.3.1s-.2.1-.3.1-.2.1-.3.1-.2 0-.3.1c-.2.1-.4.1-.6.2h-.4c-.1.1-.3.1-.4.1h-.4c-.1 0-.3.1-.4.1-.2 0-.4.1-.6.2h-.5c-.3.1-.5.1-.8.2l-.5.1c-.1 0-.3 0-.4.1s-.2 0-.3.1c-.2.1-.4.1-.6.2l-.6.1h-.1s-.1.1-.1.2c.1 0 .2 0 .3.1h.3c.3-.1.3-.1.4-.2h0zM118.5 67.1s0-.1-.1-.2v-.1s-.1-.1-.1-.2v-.5s0-.1-.1-.2l-.1-.3c-.1-.1-.2-.2-.2-.4s-.1-.3-.2-.5l-.1-.1c-.1 0-.1-.2-.2-.3h0c.1-.1 0-.3-.1-.4l-.1-.3s0-.1-.1-.2-.1-.3-.2-.4c0-.2-.1-.3-.2-.4v-.1c0-.1 0-.2-.1-.2 0 0 0-.1-.1-.1 0 0 0-.1-.1-.1 0 0-.1 0-.1-.1s0-.2-.1-.3c0-.1-.1-.2-.1-.3 0 0 0-.1-.1-.1s-.1-.1-.1-.3-.1-.2-.2-.3-.2-.2-.2-.3l-.4-.7s0-.1-.1-.1l-.5-.9c-.1-.2-.3-.3-.3-.5 0-.1-.1-.3-.2-.3 0-.1-.1-.1-.1-.2s-.1-.3-.2-.3c-.1-.1-.1-.1-.2-.3l-.1-.1-.3-.4c0-.1-.1-.1-.1-.2l-.5-.8s-.1-.1-.1-.2-.1-.2-.2-.3l-.1-.1c-.1-.1-.2-.3-.3-.4 0-.1-.1-.1-.2-.1s-.2-.1-.2-.2l-.1-.1-.3-.5c0-.1-.1-.2-.2-.3s-.2-.1-.3 0-.2.2-.2.3v.1c.1.1.1.2.1.3s0 .1.1.2l.3.4c.1.1.2.3.3.3l.5.5c.1.1.2.3.3.3 0 0 0 .1.1.1 0 .1.2.3.3.3v.1c.1.1.1.3.3.4.1.2.2.3.3.5l.4.6.3.3c.1.1.2.2.2.4.1.2.2.3.3.4 0 .2.1.3.2.4l.5.8.1.1s.1.1.1.2 0 .2.1.2c.1.1.2.3.3.5 0 .1.1.2.2.3 0 .1.1.2.1.3v.1c.1.2.2.3.3.5.1.3.3.5.4.7v.1c0 .2.1.3.2.4l.8 1.6c0 .2.1.3.2.5.1.1.1.3.2.4l.4.8.3.9s0 .1.1.1c0 0 .1.1.2.1v-.6c0-.1-.1-.2-.1-.3-.1.2-.1.1-.2.1h0zm10.6-17.5v.6c0 .1 0 .1-.1.2s-.1.1-.1.2v.5c0 .2 0 .3-.1.4 0 .2-.1.3-.1.5v.4c-.1 0-.2.2-.2.3v.5c0 .2 0 .3-.1.5v.5c0 .1-.1.2 0 .3v.3c0 .1-.1.2-.1.3s0 .2-.1.3v.5c-.1.1 0 .3-.1.4v.4l-.1.8v.2l-.1 1v5.7c0 .2-.1.4-.1.5v.3c0 .1.1.2.2.2s.2 0 .3-.1c0 0 .1-.1 0-.1v-4.3c0-.3 0-.5.1-.8v-1.9c0-.3 0-.6.1-.9v-.4c0-.1.1-.2 0-.3v-1.3c0-.2 0-.4.1-.6 0-.3.1-.5.1-.8v-.1c0-.1.1-.3.1-.4 0-.4.1-.7.2-1l.1-.6.1-.5c0-.2 0-.3.1-.5 0-.3.1-.6.2-.9l.2-.8v-.2c0-.1 0-.2-.1-.2h-.1c0 .1-.1.2-.2.3 0 0-.1.1-.1.2s0 .2-.1.3v.1z"/><path d="M142.2 24.1c2.6.2 5.8-.9 5.8-.9l-6.5 2.3c0-.1.5-1.3.7-1.4h0zM118 57.6c0-.6 10.2 11.4 10.2 11.4l-.3-5.8c0 0-9.9-5.6-9.9-5.6zm53.6 14.3c4.3-1 6.4-1 6.4-1l.1 3.5c-1.8-1.7-4.1-2.6-6.5-2.5h0zm-5-14.3l2.9 14.7c-.8 0-1.4.1-2 .5l-.9-15.2zm1.2 171.5l-.6 6.8c0 .2.1.3.2.4 1.4.5 5.6 1.5 7.1 3.9 1.6 2.5 2.7 3.9 8.6 7.5 6.1 3.7 11 5.3 10.1 1.8-1-4-8.9-11.9-8.9-11.9s-3.8-6.6-4.8-9.1c-3 2.6-11.7.6-11.7.6h0z"/></g></svg>