<?xml version="1.0" encoding="utf-8"?>
<!-- Generator: Adobe Illustrator 25.2.3, SVG Export Plug-In . SVG Version: 6.00 Build 0)  -->
<svg version="1.1" id="Lager_1" xmlns="http://www.w3.org/2000/svg" xmlns:xlink="http://www.w3.org/1999/xlink" x="0px" y="0px"
	 viewBox="0 0 496 136" style="enable-background:new 0 0 496 136;" xml:space="preserve">
<style type="text/css">
	.st0{fill:#FFFFFF;}
</style>
<g>
	<g>
		<g>
			<path class="st0" d="M11.5,41V117h26.2V67.2C37.6,52.7,25.9,41,11.5,41z"/>
			<circle class="st0" cx="24.6" cy="21.8" r="13.1"/>
			<path class="st0" d="M169.9,67.1V117h26.2V41C181.6,41,169.9,52.7,169.9,67.1z"/>
			<circle class="st0" cx="183" cy="21.8" r="13.1"/>
			<path class="st0" d="M101.2,12.3H61.9V117h39.3c29.6,0,50.7-22.1,50.7-52.4S130.8,12.3,101.2,12.3z M101.2,90.7h-13v-52h13
				c15.3,0,24.4,10.7,24.4,26C125.5,79.9,116.4,90.7,101.2,90.7z"/>
		</g>
	</g>
	<g>
		<path class="st0" d="M233.3,53.1V10h6.1c2.6,8.6,8.2,29.8,8.8,32.9h0.1c-0.3-5.6-0.3-11.7-0.3-18.8V10h4.9v43.1h-5.9
			c-2.6-8.5-8.4-31.1-9-34h-0.1c0.3,5.2,0.4,11.8,0.4,19.6v14.4H233.3z"/>
		<path class="st0" d="M276.2,44c0,4.4,0,7.5,0.1,9.1h-5c-0.1-0.6-0.2-2.3-0.2-3.4c-1.1,3-3.2,3.9-6.1,3.9c-2.9,0-6.6-1.2-6.6-8.5
			V20.1h5.2v23.6c0,3.7,1,5.2,3.4,5.2c2.3,0,4-1.4,4-7.2V20.1h5.2L276.2,44L276.2,44z"/>
		<path class="st0" d="M282.3,31.4c0-5.4,0-8.2-0.1-11.2h5c0.1,0.8,0.2,3.1,0.2,5.2c1.2-4.1,4.1-5.6,7.1-5.7v6.4c-4.1,0-7,2-7,8.2
			v18.8h-5.2L282.3,31.4L282.3,31.4z"/>
		<path class="st0" d="M298.1,20.1h3.8v-8.1h5.2v8.1h4.6v4.6h-4.6V46c0,1.7,0.3,3.2,2.4,3.2c0.6,0,1.5-0.1,2-0.2v4
			c-1,0.4-2.6,0.6-3.7,0.6c-3.5,0-5.8-1.4-5.8-6.6V24.7h-3.8L298.1,20.1L298.1,20.1z"/>
		<path class="st0" d="M332.4,44c0,4.4,0,7.5,0.1,9.1h-5c-0.1-0.6-0.2-2.3-0.2-3.4c-1.1,3-3.2,3.9-6.1,3.9c-2.9,0-6.6-1.2-6.6-8.5
			V20.1h5.2v23.6c0,3.7,1,5.2,3.4,5.2c2.3,0,4-1.4,4-7.2V20.1h5.2L332.4,44L332.4,44z"/>
		<path class="st0" d="M338.4,31.4c0-5.4,0-8.2-0.1-11.2h5c0.1,0.8,0.2,3.1,0.2,5.2c1.2-4.1,4.1-5.6,7.1-5.7v6.4c-4.1,0-7,2-7,8.2
			v18.8h-5.2L338.4,31.4L338.4,31.4z"/>
		<path class="st0" d="M358.4,37.8v4.9c0,3.2,0.6,6.4,3.8,6.4c3.1,0,3.6-2.6,3.6-5.4v-0.2h5.1v0.2c0,3.6-0.8,9.9-8.6,9.9
			c-7.5,0-8.9-4.9-8.9-11.7V30.7c0-5.2,1.8-11.1,9-11.1c6.7,0,8.7,4.9,8.7,11c0,1.8,0,5.4,0,7.2L358.4,37.8L358.4,37.8z M365.9,33.6
			v-3.7c0-3.2-0.6-5.9-3.7-5.9c-3,0-3.8,2.5-3.8,5.9v3.7L365.9,33.6L365.9,33.6z"/>
		<path class="st0" d="M387.7,40.9v2.4c0,3.8,1.3,6,4.3,6c3,0,4.1-2.3,4.1-6.5c0-4.9-1.1-6.7-5.8-10.2c-4.8-3.6-7.2-5.9-7.2-12.2
			c0-5.6,1.8-10.9,8.9-10.9c7,0,8.6,4.8,8.6,10v2h-5.2v-1.8c0-3.4-0.7-5.6-3.5-5.6c-2.8,0-3.5,2.4-3.5,5.6c0,3.7,0.8,5.3,4.8,8.2
			c6.2,4.5,8.2,7.2,8.2,14.3c0,6.1-2,11.7-9.5,11.7c-7.3,0-9.4-4.8-9.4-10.5v-2.4L387.7,40.9L387.7,40.9z"/>
		<path class="st0" d="M423.7,30.1v12.7c0,7.4-3.5,10.8-9.1,10.8c-5.8,0-9-3.4-9-10.7v-13c0-6.9,3.6-10.3,9.2-10.3
			C420.5,19.6,423.7,23.4,423.7,30.1z M410.8,29.9v13.2c0,3.6,1.1,5.9,3.8,5.9c2.5,0,3.8-1.9,3.8-6V29.9c0-3.3-1-5.6-3.8-5.6
			C412,24.2,410.8,26.2,410.8,29.9z"/>
		<path class="st0" d="M444.9,42.6V43c0,5.6-1.4,10.6-8.6,10.6c-6.9,0-8.5-4.8-8.5-11.7V30.3c0-5.7,2-10.6,8.8-10.6
			c7.3,0,8.3,5.4,8.3,9.6v1.2h-5.2v-1.1c0-2.8-0.5-5.2-3.2-5.2c-2.5,0-3.4,2-3.4,5.8v13.4c0,3.1,0.6,6,3.4,6c2.6,0,3.3-1.9,3.3-5.5
			v-1.1H444.9z"/>
		<path class="st0" d="M449.5,20.1h5.2v33h-5.2V20.1z M449.5,8.1h5.2v6.8h-5.2V8.1z"/>
		<path class="st0" d="M476.2,47.1c0,2.2,0,5,0.1,6h-4.8c-0.2-0.7-0.3-2.1-0.4-2.6c-1.1,2.3-3.1,3.2-5.5,3.2c-4.9,0-6.8-4.4-6.8-9.4
			v-0.6c0-7.6,4.8-10.2,10.9-10.2c0.4,0,0.8,0,1.3,0v-4.9c0-2.8-0.5-4.7-3-4.7c-2.5,0-3.1,1.9-3.1,4.3V29h-5.1v-0.7
			c0-4.7,1.8-8.7,8.4-8.7c6,0,8,3.6,8,8.6L476.2,47.1L476.2,47.1z M471.2,37.6c-0.4,0-1.1,0-1.5,0c-3.6,0-5.8,1.5-5.8,6v0.5
			c0,2.8,0.9,4.9,3.4,4.9c2.9,0,3.9-2.2,3.9-7.1L471.2,37.6L471.2,37.6z"/>
		<path class="st0" d="M482.3,53.1v-45h5.2v45H482.3z"/>
		<path class="st0" d="M238.5,74.4v43.1h-5.2V74.4H238.5z"/>
		<path class="st0" d="M244.3,94.7c0-6.6,0-8.5-0.1-10.1h5c0.1,0.8,0.2,1.9,0.2,3.3c1-2.3,2.9-3.8,6.1-3.8c3.8,0,6.7,2.2,6.7,8.4
			v25.1H257V93.5c0-3.2-1.1-4.7-3.4-4.7c-2.7,0-4.2,1.4-4.2,7.1v21.6h-5.2L244.3,94.7L244.3,94.7z"/>
		<path class="st0" d="M265,84.6h3.8v-8.1h5.2v8.1h4.6v4.6H274v21.3c0,1.7,0.3,3.2,2.4,3.2c0.6,0,1.5-0.1,2-0.2v4
			c-1,0.5-2.6,0.5-3.7,0.5c-3.5,0-5.8-1.4-5.8-6.6V89.2H265L265,84.6L265,84.6z"/>
		<path class="st0" d="M286,102.2v4.9c0,3.2,0.6,6.4,3.8,6.4c3.1,0,3.6-2.6,3.6-5.4V108h5.1v0.2c0,3.6-0.9,9.9-8.6,9.9
			c-7.5,0-8.9-5-8.9-11.7V95.2c0-5.2,1.8-11.1,9-11.1c6.7,0,8.7,4.9,8.7,11c0,1.8,0,5.4,0,7.2L286,102.2L286,102.2z M293.5,98.1
			v-3.7c0-3.2-0.6-5.9-3.7-5.9c-3,0-3.8,2.5-3.8,5.9v3.7L293.5,98.1L293.5,98.1z"/>
		<path class="st0" d="M303.4,117.5v-45h5.2v45H303.4z"/>
		<path class="st0" d="M314.6,117.5v-45h5.2v45H314.6z"/>
		<path class="st0" d="M325.8,84.6h5.2v33h-5.2V84.6z M325.9,72.5h5.2v6.8h-5.2V72.5z"/>
		<path class="st0" d="M354.1,116.5c0,7-0.8,12.8-9.5,12.8c-7.2,0-8.6-4.8-8.6-8.4v-0.1h5.2v0.2c0,1.4,0.5,4,3.6,4
			c3.3,0,4-2.5,4-7.2v-4c-0.9,2.2-2.7,3.4-5.6,3.4c-5.4,0-7.2-4.1-7.2-10.5V94.3c0-5.8,2.4-10.3,7.9-10.3c3.5,0,5,1.7,5.5,3.4
			c0-1,0.2-2.2,0.3-2.9h4.5c-0.1,1.9-0.1,4.8-0.1,8.6L354.1,116.5L354.1,116.5z M341.3,94.6v11.6c0,4.2,1.1,6.2,3.5,6.2
			c3.5,0,4.1-3.4,4.1-7.9v-9.2c0-3.7-0.4-6.7-3.7-6.7C342.5,88.8,341.3,90.8,341.3,94.6z"/>
		<path class="st0" d="M364.2,102.2v4.9c0,3.2,0.6,6.4,3.8,6.4c3.1,0,3.6-2.6,3.6-5.4V108h5.1v0.2c0,3.6-0.8,9.9-8.6,9.9
			c-7.5,0-8.9-5-8.9-11.7V95.2c0-5.2,1.8-11.1,9-11.1c6.7,0,8.7,4.9,8.7,11c0,1.8,0,5.4,0,7.2L364.2,102.2L364.2,102.2z M371.8,98.1
			v-3.7c0-3.2-0.6-5.9-3.7-5.9c-3,0-3.8,2.5-3.8,5.9v3.7L371.8,98.1L371.8,98.1z"/>
		<path class="st0" d="M381.5,94.7c0-6.6,0-8.5-0.1-10.1h5c0.1,0.8,0.2,1.9,0.2,3.3c1-2.3,2.9-3.8,6.1-3.8c3.8,0,6.7,2.2,6.7,8.4
			v25.1h-5.2V93.5c0-3.2-1.1-4.7-3.3-4.7c-2.7,0-4.2,1.4-4.2,7.1v21.6h-5.2L381.5,94.7L381.5,94.7z"/>
		<path class="st0" d="M421.5,107v0.4c0,5.6-1.4,10.6-8.6,10.6c-6.9,0-8.5-4.8-8.5-11.7V94.7c0-5.7,2-10.6,8.8-10.6
			c7.3,0,8.3,5.4,8.3,9.6v1.2h-5.2v-1.1c0-2.8-0.5-5.2-3.2-5.2c-2.5,0-3.4,2-3.4,5.8v13.4c0,3.1,0.6,6,3.4,6c2.6,0,3.3-1.9,3.3-5.5
			V107H421.5z"/>
		<path class="st0" d="M430.5,102.2v4.9c0,3.2,0.7,6.4,3.8,6.4c3.1,0,3.6-2.6,3.6-5.4V108h5.1v0.2c0,3.6-0.8,9.9-8.6,9.9
			c-7.5,0-8.9-5-8.9-11.7V95.2c0-5.2,1.8-11.1,9-11.1c6.7,0,8.7,4.9,8.7,11c0,1.8,0,5.4,0,7.2L430.5,102.2L430.5,102.2z M438.1,98.1
			v-3.7c0-3.2-0.6-5.9-3.7-5.9c-3,0-3.8,2.5-3.8,5.9v3.7L438.1,98.1L438.1,98.1z"/>
	</g>
</g>
</svg>
