<svg xmlns="http://www.w3.org/2000/svg" xmlns:xlink="http://www.w3.org/1999/xlink" viewBox="0 0 476 121.1" xmlns:v="https://vecta.io/nano"><g fill="#58bd81"><path d="M0 32.9V109h26.2V59c0-14.4-11.7-26.1-26.2-26.1z"/><circle cx="13.1" cy="13.7" r="13.1"/><path d="M158.4 59v49.9h26.2v-76c-14.5 0-26.2 11.7-26.2 26.1z"/><circle cx="171.5" cy="13.7" r="13.1"/><path d="M89.7 4.2H50.4v104.7h39.3c29.6 0 50.7-22.1 50.7-52.4 0-30.1-21.1-52.3-50.7-52.3zm0 78.4h-13v-52h13c15.3 0 24.4 10.7 24.4 26 0 15.2-9.1 26-24.4 26z"/></g><g fill="#666"><path d="M221.8 45V1.9h6.1c2.6 8.6 8.2 29.8 8.8 32.9h.1c-.3-5.6-.3-11.7-.3-18.8V1.9h4.9V45h-5.9c-2.6-8.5-8.4-31.1-9-34h-.1c.3 5.2.4 11.8.4 19.6V45h-5zm43-9.1l.1 9.1h-5c-.1-.6-.2-2.3-.2-3.4-1.1 3-3.2 3.9-6.1 3.9S247 44.3 247 37V12h5.2v23.6c0 3.7 1 5.2 3.4 5.2 2.3 0 4-1.4 4-7.2V12h5.2v23.9zm6-12.7l-.1-11.2h5c.1.8.2 3.1.2 5.2 1.2-4.2 4.1-5.6 7.1-5.7V18c-4.1 0-7 2-7 8.2V45h-5.2V23.2zM286.7 12h3.8V4h5.2v8h4.6v4.6h-4.6v21.3c0 1.7.3 3.2 2.4 3.2a12.31 12.31 0 0 0 2-.2v4c-1 .4-2.6.6-3.7.6-3.5 0-5.8-1.4-5.8-6.6V16.6h-3.8l-.1-4.6zM321 35.9l.1 9.1h-5c-.1-.6-.2-2.3-.2-3.4-1.1 3-3.2 3.9-6.1 3.9s-6.6-1.2-6.6-8.5V12h5.2v23.6c0 3.7 1 5.2 3.4 5.2 2.3 0 4-1.4 4-7.2V12h5.2v23.9zm6-12.7l-.1-11.2h4.9c.1.8.2 3.1.2 5.2 1.2-4.2 4.1-5.6 7.1-5.7V18c-4.1 0-7 2-7 8.2V45H327V23.2zm19.9 6.5v4.9c0 3.2.6 6.4 3.8 6.4 3.1 0 3.6-2.6 3.6-5.4v-.2h5.1v.2c0 3.6-.9 9.9-8.6 9.9-7.5 0-8.9-4.9-8.9-11.7V22.6c0-5.2 1.8-11.1 9-11.1 6.7 0 8.7 4.9 8.7 11v7.2h-12.7zm7.5-4.2v-3.7c0-3.2-.6-5.9-3.7-5.9-3 0-3.8 2.5-3.8 5.9v3.7h7.5zm21.8 7.3v2.4c0 3.8 1.3 6 4.3 6s4.1-2.3 4.1-6.5c0-4.9-1.1-6.7-5.8-10.2-4.8-3.6-7.2-5.9-7.2-12.2 0-5.6 1.8-10.9 8.9-10.9 7 0 8.6 4.8 8.6 10v2H384v-1.8c0-3.3-.7-5.7-3.5-5.7s-3.5 2.4-3.5 5.6c0 3.7.8 5.3 4.8 8.2 6.2 4.5 8.2 7.2 8.2 14.3 0 6.1-2 11.7-9.5 11.7-7.4 0-9.4-4.8-9.4-10.5v-2.4h5.1zm36-10.8v12.7c0 7.4-3.5 10.8-9.1 10.8-5.8 0-9-3.4-9-10.7v-13c0-6.8 3.6-10.3 9.2-10.3 5.8 0 8.9 3.8 8.9 10.5zm-12.9-.2V35c0 3.6 1.1 5.9 3.9 5.9 2.5 0 3.8-1.9 3.8-6V21.8c0-3.3-1-5.6-3.8-5.6-2.7-.1-3.9 1.9-3.9 5.6zm34.2 12.6v.4c0 5.6-1.4 10.6-8.6 10.6-6.9 0-8.5-4.8-8.5-11.7V22.2c0-5.7 2-10.6 8.8-10.6 7.3 0 8.3 5.4 8.3 9.6v1.2h-5.2v-1.1c0-2.8-.5-5.2-3.2-5.2-2.5 0-3.4 2-3.4 5.8v13.4c0 3.1.6 6 3.4 6 2.6 0 3.3-1.9 3.3-5.5v-1.1l5.1-.3zM438 12h5.2v33H438V12zm0-12h5.2v6.8H438V0zm26.8 39l.1 6h-4.8c-.2-.7-.3-2.1-.4-2.6-1.1 2.3-3.1 3.2-5.5 3.2-4.9 0-6.8-4.4-6.8-9.4v-.6c0-7.6 4.8-10.2 10.9-10.2h1.3v-4.9c0-2.8-.5-4.7-3-4.7s-3.1 1.9-3.1 4.3v.7h-5.1v-.7c0-4.7 1.8-8.7 8.4-8.7 6 0 8 3.6 8 8.6v19zm-5.1-9.5h-1.5c-3.6 0-5.8 1.5-5.8 6v.5c0 2.8.9 4.9 3.4 4.9 2.9 0 3.9-2.2 3.9-7.1v-4.3zM470.8 45V0h5.2v45h-5.2zM227 66.3v43.1h-5.2V66.3h5.2zm5.8 20.3l-.1-10.1h5c.1.8.2 1.9.2 3.2 1-2.3 2.9-3.8 6.1-3.8 3.8 0 6.7 2.2 6.7 8.4v25.1h-5.2V85.3c0-3.2-1.1-4.7-3.4-4.7-2.7 0-4.2 1.4-4.2 7.1v21.6h-5.2l.1-22.7zm20.8-10.1h3.8v-8.1h5.2v8.1h4.6v4.6h-4.6v21.3c0 1.7.3 3.2 2.4 3.2a12.31 12.31 0 0 0 2-.2v4c-1 .4-2.6.6-3.7.6-3.5 0-5.8-1.4-5.8-6.6V81.1h-3.8l-.1-4.6z"/><use xlink:href="#B"/><path d="M291.9 109.4v-45h5.2v45h-5.2zm11.2 0v-45h5.2v45h-5.2zm11.2-32.9h5.2v33h-5.2v-33zm.1-12.1h5.2v6.8h-5.2v-6.8zm28.2 43.9c0 7-.8 12.8-9.5 12.8-7.2 0-8.6-4.8-8.6-8.4v-.1h5.2v.2c0 1.4.5 4 3.6 4 3.3 0 4-2.5 4-7.2v-4c-.9 2.2-2.7 3.4-5.6 3.4-5.4 0-7.2-4.1-7.2-10.5V86.2c0-5.8 2.4-10.3 7.9-10.3 3.5 0 5 1.7 5.5 3.4 0-1 .2-2.2.3-2.9h4.5c-.1 1.9-.1 4.8-.1 8.6v23.3zm-12.8-21.8v11.6c0 4.2 1.1 6.2 3.5 6.2 3.5 0 4.1-3.4 4.1-7.9v-9.2c0-3.7-.4-6.7-3.7-6.7-2.6.2-3.9 2.2-3.9 6z"/><use xlink:href="#B" x="78.2"/><path d="M370.1 86.6l-.1-10.1h5c.1.8.2 1.9.2 3.2 1-2.3 2.9-3.8 6.1-3.8 3.8 0 6.7 2.2 6.7 8.4v25.1h-5.2V85.3c0-3.2-1.1-4.7-3.4-4.7-2.7 0-4.2 1.4-4.2 7.1v21.6H370l.1-22.7zm40 12.3v.4c0 5.6-1.4 10.6-8.6 10.6-6.9 0-8.5-4.8-8.5-11.7V86.6c0-5.7 2-10.6 8.8-10.6 7.3 0 8.3 5.4 8.3 9.6v1.2h-5.2v-1.1c0-2.8-.5-5.2-3.2-5.2-2.5 0-3.4 2-3.4 5.8v13.4c0 3.1.6 6 3.4 6 2.6 0 3.3-1.9 3.3-5.5v-1.1h5.1zm8.9-4.8V99c0 3.2.7 6.4 3.8 6.4s3.6-2.6 3.6-5.4v-.2h5.1v.2c0 3.6-.8 9.9-8.6 9.9-7.5 0-8.9-4.9-8.9-11.7V87.1c0-5.2 1.8-11.1 9-11.1 6.7 0 8.7 4.9 8.7 11v7.2l-12.7-.1zm7.6-4.1v-3.7c0-3.2-.6-5.9-3.7-5.9-3 0-3.8 2.5-3.8 5.9V90h7.5z"/></g><defs ><path id="B" d="M274.5 94.1V99c0 3.2.6 6.4 3.8 6.4 3.1 0 3.6-2.6 3.6-5.4v-.2h5.1v.2c0 3.6-.9 9.9-8.6 9.9-7.5 0-8.9-4.9-8.9-11.7V87.1c0-5.2 1.8-11.1 9-11.1 6.7 0 8.7 4.9 8.7 11v7.2l-12.7-.1zm7.6-4.1v-3.7c0-3.2-.6-5.9-3.7-5.9-3 0-3.8 2.5-3.8 5.9V90h7.5z"/></defs></svg>